<svg xmlns="http://www.w3.org/2000/svg" viewBox="0 0 800 400">
  <!-- Background -->
  <rect width="800" height="400" fill="#F5F5F5"/>

  <!-- Title -->
  <text x="20" y="30" font-family="Arial, sans-serif" font-size="14" font-weight="bold" fill="#333">DataTable - Default State</text>

  <!-- Table Container -->
  <rect x="20" y="50" width="760" height="300" fill="#FFFFFF" stroke="#D9D9D9" rx="4"/>

  <!-- Table Header -->
  <rect x="20" y="50" width="760" height="40" fill="#FAFAFA" stroke="#D9D9D9" rx="4"/>

  <!-- Header Cells -->
  <!-- Checkbox Column -->
  <rect x="20" y="50" width="50" height="40" fill="#FAFAFA" stroke="#D9D9D9"/>
  <rect x="35" y="63" width="16" height="16" fill="none" stroke="#D9D9D9" rx="2"/>

  <!-- Name Column -->
  <rect x="70" y="50" width="180" height="40" fill="#FAFAFA" stroke="#D9D9D9"/>
  <text x="80" y="75" font-family="Arial, sans-serif" font-size="13" font-weight="500" fill="#333">Name</text>
  <text x="230" y="75" font-family="Arial, sans-serif" font-size="10" fill="#BFBFBF">sort</text>

  <!-- Status Column -->
  <rect x="250" y="50" width="130" height="40" fill="#FAFAFA" stroke="#D9D9D9"/>
  <text x="260" y="75" font-family="Arial, sans-serif" font-size="13" font-weight="500" fill="#333">Status</text>
  <text x="360" y="75" font-family="Arial, sans-serif" font-size="10" fill="#BFBFBF">sort</text>

  <!-- Date Column -->
  <rect x="380" y="50" width="150" height="40" fill="#FAFAFA" stroke="#D9D9D9"/>
  <text x="390" y="75" font-family="Arial, sans-serif" font-size="13" font-weight="500" fill="#333">Created Date</text>
  <text x="510" y="75" font-family="Arial, sans-serif" font-size="10" fill="#BFBFBF">sort</text>

  <!-- Actions Column -->
  <rect x="530" y="50" width="250" height="40" fill="#FAFAFA" stroke="#D9D9D9"/>
  <text x="540" y="75" font-family="Arial, sans-serif" font-size="13" font-weight="500" fill="#333">Actions</text>

  <!-- Data Rows -->
  <!-- Row 1 -->
  <rect x="20" y="90" width="760" height="40" fill="#FFFFFF" stroke="#D9D9D9"/>
  <rect x="35" y="103" width="16" height="16" fill="none" stroke="#D9D9D9" rx="2"/>
  <text x="80" y="115" font-family="Arial, sans-serif" font-size="13" fill="#333">Hong Gil-dong</text>
  <text x="260" y="115" font-family="Arial, sans-serif" font-size="13" fill="#52C41A">Active</text>
  <text x="390" y="115" font-family="Arial, sans-serif" font-size="13" fill="#333">2026-01-15</text>
  <rect x="540" y="100" width="50" height="24" fill="#FFFFFF" stroke="#1677FF" rx="4"/>
  <text x="552" y="117" font-family="Arial, sans-serif" font-size="11" fill="#1677FF">Edit</text>
  <rect x="600" y="100" width="60" height="24" fill="#FFFFFF" stroke="#FF4D4F" rx="4"/>
  <text x="610" y="117" font-family="Arial, sans-serif" font-size="11" fill="#FF4D4F">Delete</text>

  <!-- Row 2 -->
  <rect x="20" y="130" width="760" height="40" fill="#FFFFFF" stroke="#D9D9D9"/>
  <rect x="35" y="143" width="16" height="16" fill="none" stroke="#D9D9D9" rx="2"/>
  <text x="80" y="155" font-family="Arial, sans-serif" font-size="13" fill="#333">Kim Chul-su</text>
  <text x="260" y="155" font-family="Arial, sans-serif" font-size="13" fill="#8C8C8C">Inactive</text>
  <text x="390" y="155" font-family="Arial, sans-serif" font-size="13" fill="#333">2026-01-14</text>
  <rect x="540" y="140" width="50" height="24" fill="#FFFFFF" stroke="#1677FF" rx="4"/>
  <text x="552" y="157" font-family="Arial, sans-serif" font-size="11" fill="#1677FF">Edit</text>
  <rect x="600" y="140" width="60" height="24" fill="#FFFFFF" stroke="#FF4D4F" rx="4"/>
  <text x="610" y="157" font-family="Arial, sans-serif" font-size="11" fill="#FF4D4F">Delete</text>

  <!-- Row 3 -->
  <rect x="20" y="170" width="760" height="40" fill="#FFFFFF" stroke="#D9D9D9"/>
  <rect x="35" y="183" width="16" height="16" fill="none" stroke="#D9D9D9" rx="2"/>
  <text x="80" y="195" font-family="Arial, sans-serif" font-size="13" fill="#333">Lee Young-hee</text>
  <text x="260" y="195" font-family="Arial, sans-serif" font-size="13" fill="#52C41A">Active</text>
  <text x="390" y="195" font-family="Arial, sans-serif" font-size="13" fill="#333">2026-01-13</text>
  <rect x="540" y="180" width="50" height="24" fill="#FFFFFF" stroke="#1677FF" rx="4"/>
  <text x="552" y="197" font-family="Arial, sans-serif" font-size="11" fill="#1677FF">Edit</text>
  <rect x="600" y="180" width="60" height="24" fill="#FFFFFF" stroke="#FF4D4F" rx="4"/>
  <text x="610" y="197" font-family="Arial, sans-serif" font-size="11" fill="#FF4D4F">Delete</text>

  <!-- Row 4 -->
  <rect x="20" y="210" width="760" height="40" fill="#FFFFFF" stroke="#D9D9D9"/>
  <rect x="35" y="223" width="16" height="16" fill="none" stroke="#D9D9D9" rx="2"/>
  <text x="80" y="235" font-family="Arial, sans-serif" font-size="13" fill="#333">Park Min-su</text>
  <text x="260" y="235" font-family="Arial, sans-serif" font-size="13" fill="#FAAD14">Pending</text>
  <text x="390" y="235" font-family="Arial, sans-serif" font-size="13" fill="#333">2026-01-12</text>
  <rect x="540" y="220" width="50" height="24" fill="#FFFFFF" stroke="#1677FF" rx="4"/>
  <text x="552" y="237" font-family="Arial, sans-serif" font-size="11" fill="#1677FF">Edit</text>
  <rect x="600" y="220" width="60" height="24" fill="#FFFFFF" stroke="#FF4D4F" rx="4"/>
  <text x="610" y="237" font-family="Arial, sans-serif" font-size="11" fill="#FF4D4F">Delete</text>

  <!-- Row 5 -->
  <rect x="20" y="250" width="760" height="40" fill="#FFFFFF" stroke="#D9D9D9"/>
  <rect x="35" y="263" width="16" height="16" fill="none" stroke="#D9D9D9" rx="2"/>
  <text x="80" y="275" font-family="Arial, sans-serif" font-size="13" fill="#333">Jung Su-yeon</text>
  <text x="260" y="275" font-family="Arial, sans-serif" font-size="13" fill="#52C41A">Active</text>
  <text x="390" y="275" font-family="Arial, sans-serif" font-size="13" fill="#333">2026-01-11</text>
  <rect x="540" y="260" width="50" height="24" fill="#FFFFFF" stroke="#1677FF" rx="4"/>
  <text x="552" y="277" font-family="Arial, sans-serif" font-size="11" fill="#1677FF">Edit</text>
  <rect x="600" y="260" width="60" height="24" fill="#FFFFFF" stroke="#FF4D4F" rx="4"/>
  <text x="610" y="277" font-family="Arial, sans-serif" font-size="11" fill="#FF4D4F">Delete</text>

  <!-- Pagination -->
  <rect x="20" y="310" width="760" height="40" fill="#FFFFFF" stroke="#D9D9D9"/>

  <!-- Total Count -->
  <text x="35" y="335" font-family="Arial, sans-serif" font-size="13" fill="#666">Total 125 items</text>

  <!-- Page Size Selector -->
  <rect x="200" y="318" width="80" height="26" fill="#FFFFFF" stroke="#D9D9D9" rx="4"/>
  <text x="210" y="336" font-family="Arial, sans-serif" font-size="12" fill="#333">10 / page</text>
  <text x="265" y="336" font-family="Arial, sans-serif" font-size="10" fill="#666">v</text>

  <!-- Page Numbers -->
  <rect x="520" y="318" width="26" height="26" fill="#FFFFFF" stroke="#D9D9D9" rx="4"/>
  <text x="528" y="336" font-family="Arial, sans-serif" font-size="12" fill="#666">&lt;</text>

  <rect x="550" y="318" width="26" height="26" fill="#1677FF" stroke="#1677FF" rx="4"/>
  <text x="559" y="336" font-family="Arial, sans-serif" font-size="12" fill="#FFFFFF">1</text>

  <rect x="580" y="318" width="26" height="26" fill="#FFFFFF" stroke="#D9D9D9" rx="4"/>
  <text x="589" y="336" font-family="Arial, sans-serif" font-size="12" fill="#333">2</text>

  <rect x="610" y="318" width="26" height="26" fill="#FFFFFF" stroke="#D9D9D9" rx="4"/>
  <text x="619" y="336" font-family="Arial, sans-serif" font-size="12" fill="#333">3</text>

  <text x="645" y="336" font-family="Arial, sans-serif" font-size="12" fill="#333">...</text>

  <rect x="670" y="318" width="32" height="26" fill="#FFFFFF" stroke="#D9D9D9" rx="4"/>
  <text x="676" y="336" font-family="Arial, sans-serif" font-size="12" fill="#333">13</text>

  <rect x="706" y="318" width="26" height="26" fill="#FFFFFF" stroke="#D9D9D9" rx="4"/>
  <text x="714" y="336" font-family="Arial, sans-serif" font-size="12" fill="#666">&gt;</text>

  <!-- Footer Note -->
  <text x="20" y="385" font-family="Arial, sans-serif" font-size="10" fill="#999">TSK-05-04 DataTable Component - Default State</text>
</svg>
