<svg width="1200" height="700" viewBox="0 0 1200 700" fill="none" xmlns="http://www.w3.org/2000/svg">
  <!-- Background -->
  <rect width="1200" height="700" fill="#f5f5f5"/>

  <!-- Title -->
  <text x="40" y="40" font-family="Arial, sans-serif" font-size="18" font-weight="bold" fill="#262626">SCR-01: 공정 목록 (기본)</text>

  <!-- Search Area Card -->
  <rect x="40" y="60" width="1120" height="120" rx="8" fill="white" stroke="#d9d9d9"/>
  <text x="60" y="90" font-family="Arial, sans-serif" font-size="14" fill="#595959">검색 조건</text>

  <!-- Search Fields -->
  <text x="60" y="120" font-family="Arial, sans-serif" font-size="12" fill="#595959">공정코드</text>
  <rect x="60" y="130" width="200" height="32" rx="4" fill="white" stroke="#d9d9d9"/>
  <text x="70" y="151" font-family="Arial, sans-serif" font-size="12" fill="#bfbfbf">공정코드 검색...</text>

  <text x="290" y="120" font-family="Arial, sans-serif" font-size="12" fill="#595959">공정명</text>
  <rect x="290" y="130" width="200" height="32" rx="4" fill="white" stroke="#d9d9d9"/>
  <text x="300" y="151" font-family="Arial, sans-serif" font-size="12" fill="#bfbfbf">공정명 검색...</text>

  <text x="520" y="120" font-family="Arial, sans-serif" font-size="12" fill="#595959">상태</text>
  <rect x="520" y="130" width="150" height="32" rx="4" fill="white" stroke="#d9d9d9"/>
  <text x="530" y="151" font-family="Arial, sans-serif" font-size="12" fill="#262626">전체</text>
  <text x="650" y="151" font-family="Arial, sans-serif" font-size="10" fill="#bfbfbf">▼</text>

  <!-- Search Buttons -->
  <rect x="940" y="130" width="70" height="32" rx="4" fill="white" stroke="#d9d9d9"/>
  <text x="960" y="151" font-family="Arial, sans-serif" font-size="12" fill="#595959">초기화</text>

  <rect x="1020" y="130" width="80" height="32" rx="4" fill="#1890ff"/>
  <text x="1037" y="151" font-family="Arial, sans-serif" font-size="12" fill="white">🔍 검색</text>

  <!-- Table Area -->
  <rect x="40" y="200" width="1120" height="460" rx="8" fill="white" stroke="#d9d9d9"/>

  <!-- Toolbar -->
  <rect x="50" y="210" width="1100" height="40" fill="#fafafa"/>
  <rect x="60" y="220" width="60" height="28" rx="4" fill="#1890ff"/>
  <text x="70" y="239" font-family="Arial, sans-serif" font-size="12" fill="white">+ 신규</text>

  <rect x="130" y="220" width="60" height="28" rx="4" fill="#f5f5f5" stroke="#d9d9d9"/>
  <text x="142" y="239" font-family="Arial, sans-serif" font-size="12" fill="#bfbfbf">🗑 삭제</text>

  <text x="980" y="239" font-family="Arial, sans-serif" font-size="12" fill="#595959">0건 선택됨 | 총 15건</text>

  <!-- Table Header -->
  <rect x="50" y="250" width="1100" height="36" fill="#fafafa"/>
  <line x1="50" y1="286" x2="1150" y2="286" stroke="#d9d9d9"/>

  <rect x="60" y="260" width="16" height="16" rx="2" fill="white" stroke="#d9d9d9"/>
  <text x="100" y="274" font-family="Arial, sans-serif" font-size="12" font-weight="bold" fill="#262626">공정코드</text>
  <text x="230" y="274" font-family="Arial, sans-serif" font-size="12" font-weight="bold" fill="#262626">공정명</text>
  <text x="400" y="274" font-family="Arial, sans-serif" font-size="12" font-weight="bold" fill="#262626">상태</text>
  <text x="530" y="274" font-family="Arial, sans-serif" font-size="12" font-weight="bold" fill="#262626">순서</text>
  <text x="630" y="274" font-family="Arial, sans-serif" font-size="12" font-weight="bold" fill="#262626">설비수</text>
  <text x="750" y="274" font-family="Arial, sans-serif" font-size="12" font-weight="bold" fill="#262626">생성일</text>

  <!-- Table Row 1 -->
  <rect x="50" y="286" width="1100" height="44" fill="white"/>
  <line x1="50" y1="330" x2="1150" y2="330" stroke="#f0f0f0"/>
  <rect x="60" y="302" width="16" height="16" rx="2" fill="white" stroke="#d9d9d9"/>
  <text x="100" y="314" font-family="Arial, sans-serif" font-size="12" fill="#262626">PRC001</text>
  <text x="230" y="314" font-family="Arial, sans-serif" font-size="12" fill="#262626">조립</text>
  <rect x="400" y="301" width="40" height="20" rx="4" fill="#f6ffed" stroke="#b7eb8f"/>
  <text x="408" y="315" font-family="Arial, sans-serif" font-size="11" fill="#52c41a">활성</text>
  <text x="530" y="314" font-family="Arial, sans-serif" font-size="12" fill="#262626">1</text>
  <text x="630" y="314" font-family="Arial, sans-serif" font-size="12" fill="#262626">5</text>
  <text x="750" y="314" font-family="Arial, sans-serif" font-size="12" fill="#595959">2026-01-15</text>

  <!-- Table Row 2 -->
  <rect x="50" y="330" width="1100" height="44" fill="#fafafa"/>
  <line x1="50" y1="374" x2="1150" y2="374" stroke="#f0f0f0"/>
  <rect x="60" y="346" width="16" height="16" rx="2" fill="white" stroke="#d9d9d9"/>
  <text x="100" y="358" font-family="Arial, sans-serif" font-size="12" fill="#262626">PRC002</text>
  <text x="230" y="358" font-family="Arial, sans-serif" font-size="12" fill="#262626">도장</text>
  <rect x="400" y="345" width="40" height="20" rx="4" fill="#f6ffed" stroke="#b7eb8f"/>
  <text x="408" y="359" font-family="Arial, sans-serif" font-size="11" fill="#52c41a">활성</text>
  <text x="530" y="358" font-family="Arial, sans-serif" font-size="12" fill="#262626">2</text>
  <text x="630" y="358" font-family="Arial, sans-serif" font-size="12" fill="#262626">3</text>
  <text x="750" y="358" font-family="Arial, sans-serif" font-size="12" fill="#595959">2026-01-14</text>

  <!-- Table Row 3 (Inactive - Gray) -->
  <rect x="50" y="374" width="1100" height="44" fill="white"/>
  <line x1="50" y1="418" x2="1150" y2="418" stroke="#f0f0f0"/>
  <rect x="60" y="390" width="16" height="16" rx="2" fill="white" stroke="#d9d9d9"/>
  <text x="100" y="402" font-family="Arial, sans-serif" font-size="12" fill="#8c8c8c">PRC003</text>
  <text x="230" y="402" font-family="Arial, sans-serif" font-size="12" fill="#8c8c8c">검사</text>
  <rect x="400" y="389" width="50" height="20" rx="4" fill="#fff1f0" stroke="#ffa39e"/>
  <text x="406" y="403" font-family="Arial, sans-serif" font-size="11" fill="#ff4d4f">비활성</text>
  <text x="530" y="402" font-family="Arial, sans-serif" font-size="12" fill="#8c8c8c">3</text>
  <text x="630" y="402" font-family="Arial, sans-serif" font-size="12" fill="#8c8c8c">2</text>
  <text x="750" y="402" font-family="Arial, sans-serif" font-size="12" fill="#8c8c8c">2026-01-13</text>

  <!-- Table Row 4 -->
  <rect x="50" y="418" width="1100" height="44" fill="#fafafa"/>
  <line x1="50" y1="462" x2="1150" y2="462" stroke="#f0f0f0"/>
  <rect x="60" y="434" width="16" height="16" rx="2" fill="white" stroke="#d9d9d9"/>
  <text x="100" y="446" font-family="Arial, sans-serif" font-size="12" fill="#262626">PRC004</text>
  <text x="230" y="446" font-family="Arial, sans-serif" font-size="12" fill="#262626">포장</text>
  <rect x="400" y="433" width="40" height="20" rx="4" fill="#f6ffed" stroke="#b7eb8f"/>
  <text x="408" y="447" font-family="Arial, sans-serif" font-size="11" fill="#52c41a">활성</text>
  <text x="530" y="446" font-family="Arial, sans-serif" font-size="12" fill="#262626">4</text>
  <text x="630" y="446" font-family="Arial, sans-serif" font-size="12" fill="#262626">4</text>
  <text x="750" y="446" font-family="Arial, sans-serif" font-size="12" fill="#595959">2026-01-12</text>

  <!-- Table Row 5 -->
  <rect x="50" y="462" width="1100" height="44" fill="white"/>
  <line x1="50" y1="506" x2="1150" y2="506" stroke="#f0f0f0"/>
  <rect x="60" y="478" width="16" height="16" rx="2" fill="white" stroke="#d9d9d9"/>
  <text x="100" y="490" font-family="Arial, sans-serif" font-size="12" fill="#262626">PRC005</text>
  <text x="230" y="490" font-family="Arial, sans-serif" font-size="12" fill="#262626">출하</text>
  <rect x="400" y="477" width="40" height="20" rx="4" fill="#f6ffed" stroke="#b7eb8f"/>
  <text x="408" y="491" font-family="Arial, sans-serif" font-size="11" fill="#52c41a">활성</text>
  <text x="530" y="490" font-family="Arial, sans-serif" font-size="12" fill="#262626">5</text>
  <text x="630" y="490" font-family="Arial, sans-serif" font-size="12" fill="#262626">1</text>
  <text x="750" y="490" font-family="Arial, sans-serif" font-size="12" fill="#595959">2026-01-11</text>

  <!-- Pagination -->
  <rect x="50" y="610" width="1100" height="40" fill="#fafafa"/>
  <text x="60" y="636" font-family="Arial, sans-serif" font-size="12" fill="#595959">총 15건</text>

  <rect x="500" y="620" width="50" height="24" rx="4" fill="white" stroke="#d9d9d9"/>
  <text x="513" y="637" font-family="Arial, sans-serif" font-size="12" fill="#262626">10 ▼</text>
  <text x="560" y="637" font-family="Arial, sans-serif" font-size="12" fill="#595959">건/페이지</text>

  <text x="700" y="637" font-family="Arial, sans-serif" font-size="12" fill="#595959">&lt;</text>
  <rect x="720" y="620" width="28" height="24" rx="4" fill="#1890ff"/>
  <text x="729" y="637" font-family="Arial, sans-serif" font-size="12" fill="white">1</text>
  <rect x="755" y="620" width="28" height="24" rx="4" fill="white" stroke="#d9d9d9"/>
  <text x="764" y="637" font-family="Arial, sans-serif" font-size="12" fill="#262626">2</text>
  <rect x="790" y="620" width="28" height="24" rx="4" fill="white" stroke="#d9d9d9"/>
  <text x="799" y="637" font-family="Arial, sans-serif" font-size="12" fill="#262626">3</text>
  <text x="830" y="637" font-family="Arial, sans-serif" font-size="12" fill="#595959">&gt;</text>

  <!-- Legend -->
  <rect x="40" y="670" width="1120" height="24" fill="#f5f5f5"/>
  <text x="60" y="686" font-family="Arial, sans-serif" font-size="10" fill="#8c8c8c">data-testid: process-management-page, process-table, search-btn, reset-btn, create-btn, delete-btn</text>
</svg>
