<svg width="1200" height="750" viewBox="0 0 1200 750" fill="none" xmlns="http://www.w3.org/2000/svg">
  <!-- Background -->
  <rect width="1200" height="750" fill="#f5f5f5"/>

  <!-- Title -->
  <text x="40" y="40" font-family="Arial, sans-serif" font-size="18" font-weight="bold" fill="#262626">SCR-05: 공정 상세</text>

  <!-- Header Card -->
  <rect x="40" y="60" width="1120" height="60" rx="8" fill="white" stroke="#d9d9d9"/>
  <text x="60" y="98" font-family="Arial, sans-serif" font-size="18" font-weight="bold" fill="#262626">공정 상세: PRC001 - 조립</text>

  <!-- Action Buttons -->
  <rect x="980" y="78" width="60" height="28" rx="4" fill="#1890ff"/>
  <text x="995" y="97" font-family="Arial, sans-serif" font-size="12" fill="white">수정</text>

  <rect x="1050" y="78" width="60" height="28" rx="4" fill="white" stroke="#ff4d4f"/>
  <text x="1065" y="97" font-family="Arial, sans-serif" font-size="12" fill="#ff4d4f">삭제</text>

  <!-- Basic Info Card -->
  <rect x="40" y="140" width="1120" height="180" rx="8" fill="white" stroke="#d9d9d9"/>
  <text x="60" y="170" font-family="Arial, sans-serif" font-size="14" font-weight="bold" fill="#262626">기본 정보</text>

  <!-- Descriptions Table -->
  <rect x="60" y="185" width="1080" height="120" rx="4" fill="white" stroke="#d9d9d9"/>

  <!-- Row 1 -->
  <rect x="60" y="185" width="180" height="40" fill="#fafafa" stroke="#d9d9d9"/>
  <text x="120" y="210" font-family="Arial, sans-serif" font-size="12" fill="#595959">공정코드</text>
  <rect x="240" y="185" width="300" height="40" fill="white" stroke="#d9d9d9"/>
  <text x="260" y="210" font-family="Arial, sans-serif" font-size="12" fill="#262626">PRC001</text>

  <rect x="540" y="185" width="180" height="40" fill="#fafafa" stroke="#d9d9d9"/>
  <text x="605" y="210" font-family="Arial, sans-serif" font-size="12" fill="#595959">공정명</text>
  <rect x="720" y="185" width="420" height="40" fill="white" stroke="#d9d9d9"/>
  <text x="740" y="210" font-family="Arial, sans-serif" font-size="12" fill="#262626">조립</text>

  <!-- Row 2 -->
  <rect x="60" y="225" width="180" height="40" fill="#fafafa" stroke="#d9d9d9"/>
  <text x="130" y="250" font-family="Arial, sans-serif" font-size="12" fill="#595959">상태</text>
  <rect x="240" y="225" width="300" height="40" fill="white" stroke="#d9d9d9"/>
  <rect x="260" y="235" width="40" height="20" rx="4" fill="#f6ffed" stroke="#b7eb8f"/>
  <text x="268" y="249" font-family="Arial, sans-serif" font-size="11" fill="#52c41a">활성</text>

  <rect x="540" y="225" width="180" height="40" fill="#fafafa" stroke="#d9d9d9"/>
  <text x="610" y="250" font-family="Arial, sans-serif" font-size="12" fill="#595959">순서</text>
  <rect x="720" y="225" width="420" height="40" fill="white" stroke="#d9d9d9"/>
  <text x="740" y="250" font-family="Arial, sans-serif" font-size="12" fill="#262626">1</text>

  <!-- Row 3 -->
  <rect x="60" y="265" width="180" height="40" fill="#fafafa" stroke="#d9d9d9"/>
  <text x="110" y="290" font-family="Arial, sans-serif" font-size="12" fill="#595959">연결 설비</text>
  <rect x="240" y="265" width="300" height="40" fill="white" stroke="#d9d9d9"/>
  <text x="260" y="290" font-family="Arial, sans-serif" font-size="12" fill="#1890ff">5대</text>

  <rect x="540" y="265" width="180" height="40" fill="#fafafa" stroke="#d9d9d9"/>
  <text x="600" y="290" font-family="Arial, sans-serif" font-size="12" fill="#595959">생성일</text>
  <rect x="720" y="265" width="420" height="40" fill="white" stroke="#d9d9d9"/>
  <text x="740" y="290" font-family="Arial, sans-serif" font-size="12" fill="#595959">2026-01-15</text>

  <!-- Tabs Card -->
  <rect x="40" y="340" width="1120" height="350" rx="8" fill="white" stroke="#d9d9d9"/>

  <!-- Tab Headers -->
  <rect x="40" y="340" width="1120" height="48" fill="#fafafa" rx="8"/>
  <rect x="40" y="364" width="1120" height="24" fill="#fafafa"/>

  <rect x="60" y="350" width="80" height="32" fill="white"/>
  <text x="75" y="371" font-family="Arial, sans-serif" font-size="13" fill="#1890ff" font-weight="bold">기본정보</text>
  <rect x="60" y="380" width="80" height="2" fill="#1890ff"/>

  <rect x="160" y="350" width="80" height="32" fill="#fafafa"/>
  <text x="175" y="371" font-family="Arial, sans-serif" font-size="13" fill="#595959">설비연결</text>

  <rect x="260" y="350" width="60" height="32" fill="#fafafa"/>
  <text x="275" y="371" font-family="Arial, sans-serif" font-size="13" fill="#595959">이력</text>

  <!-- Tab Content - Basic Info -->
  <rect x="60" y="400" width="1080" height="270" fill="white"/>
  <text x="80" y="430" font-family="Arial, sans-serif" font-size="14" font-weight="bold" fill="#262626">설명</text>
  <text x="80" y="460" font-family="Arial, sans-serif" font-size="13" fill="#595959">부품을 조립하는 핵심 공정입니다.</text>
  <text x="80" y="485" font-family="Arial, sans-serif" font-size="13" fill="#595959">자동화 라인과 수동 라인이 혼합되어 운영됩니다.</text>

  <text x="80" y="530" font-family="Arial, sans-serif" font-size="14" font-weight="bold" fill="#262626">추가 정보</text>
  <text x="80" y="560" font-family="Arial, sans-serif" font-size="13" fill="#595959">- 담당자: 생산팀 박대리</text>
  <text x="80" y="585" font-family="Arial, sans-serif" font-size="13" fill="#595959">- 운영시간: 08:00 ~ 18:00</text>
  <text x="80" y="610" font-family="Arial, sans-serif" font-size="13" fill="#595959">- 최근 수정: 2026-01-20</text>

  <!-- Back Button -->
  <rect x="1020" y="700" width="100" height="36" rx="4" fill="white" stroke="#d9d9d9"/>
  <text x="1045" y="723" font-family="Arial, sans-serif" font-size="12" fill="#595959">목록으로</text>

  <!-- Legend -->
  <rect x="40" y="720" width="960" height="24" fill="#f5f5f5"/>
  <text x="60" y="736" font-family="Arial, sans-serif" font-size="10" fill="#8c8c8c">data-testid: process-detail-view, process-basic-info, edit-btn, detail-delete-btn, back-to-list-btn, process-detail-tabs</text>
</svg>
