<svg xmlns="http://www.w3.org/2000/svg" viewBox="0 0 1024 768">
  <!-- Background -->
  <rect width="1024" height="768" fill="#F5F5F5"/>

  <!-- Page Title Bar -->
  <rect x="20" y="20" width="984" height="50" fill="#FFFFFF" stroke="#D9D9D9" rx="4"/>
  <text x="36" y="52" font-family="Arial, sans-serif" font-size="18" font-weight="bold" fill="#333">DataTable Showcase</text>
  <text x="36" y="68" font-family="Arial, sans-serif" font-size="11" fill="#8C8C8C">Expanded Row View</text>

  <!-- Reset Button -->
  <rect x="890" y="32" width="100" height="28" fill="#FFFFFF" stroke="#D9D9D9" rx="4"/>
  <text x="908" y="51" font-family="Arial, sans-serif" font-size="12" fill="#333">Reset Settings</text>

  <!-- Feature Toggle Panel (Collapsed View) -->
  <rect x="20" y="80" width="984" height="50" fill="#FFFFFF" stroke="#D9D9D9" rx="4"/>
  <text x="36" y="110" font-family="Arial, sans-serif" font-size="12" font-weight="500" fill="#666">Feature Toggles (Expandable: ON)</text>

  <!-- Toggle indicators (mini) -->
  <rect x="280" y="95" width="24" height="14" fill="#1677FF" rx="7"/>
  <circle cx="296" cy="102" r="5" fill="#FFFFFF"/>
  <text x="310" y="106" font-family="Arial, sans-serif" font-size="10" fill="#333">Expandable</text>

  <rect x="410" y="95" width="24" height="14" fill="#1677FF" rx="7"/>
  <circle cx="426" cy="102" r="5" fill="#FFFFFF"/>
  <text x="440" y="106" font-family="Arial, sans-serif" font-size="10" fill="#333">+11 more</text>

  <!-- Data Table Container -->
  <rect x="20" y="140" width="984" height="580" fill="#FFFFFF" stroke="#D9D9D9" rx="4"/>

  <!-- Group Header Row -->
  <rect x="20" y="140" width="984" height="32" fill="#F0F5FF" stroke="#D9D9D9"/>
  <rect x="20" y="140" width="450" height="32" fill="#F0F5FF" stroke="#ADC6FF"/>
  <text x="220" y="161" font-family="Arial, sans-serif" font-size="12" font-weight="600" fill="#1D39C4" text-anchor="middle">Basic Info</text>
  <rect x="470" y="140" width="534" height="32" fill="#F6FFED" stroke="#B7EB8F"/>
  <text x="737" y="161" font-family="Arial, sans-serif" font-size="12" font-weight="600" fill="#389E0D" text-anchor="middle">Performance</text>

  <!-- Column Header Row -->
  <rect x="20" y="172" width="984" height="36" fill="#FAFAFA" stroke="#D9D9D9"/>

  <!-- Column Headers -->
  <rect x="20" y="172" width="30" height="36" fill="#FAFAFA" stroke="#E8E8E8"/>
  <rect x="50" y="172" width="36" height="36" fill="#FAFAFA" stroke="#E8E8E8"/>
  <rect x="62" y="184" width="14" height="14" fill="none" stroke="#D9D9D9" rx="2"/>
  <rect x="86" y="172" width="30" height="36" fill="#FAFAFA" stroke="#E8E8E8"/>
  <rect x="116" y="172" width="60" height="36" fill="#FAFAFA" stroke="#E8E8E8"/>
  <text x="126" y="195" font-family="Arial, sans-serif" font-size="12" font-weight="500" fill="#333">ID</text>
  <rect x="176" y="172" width="120" height="36" fill="#FAFAFA" stroke="#E8E8E8"/>
  <text x="186" y="195" font-family="Arial, sans-serif" font-size="12" font-weight="500" fill="#333">Product Code</text>
  <rect x="296" y="172" width="174" height="36" fill="#FAFAFA" stroke="#E8E8E8"/>
  <text x="306" y="195" font-family="Arial, sans-serif" font-size="12" font-weight="500" fill="#333">Product Name</text>
  <rect x="470" y="172" width="80" height="36" fill="#FAFAFA" stroke="#E8E8E8"/>
  <text x="480" y="195" font-family="Arial, sans-serif" font-size="12" font-weight="500" fill="#333">Target</text>
  <rect x="550" y="172" width="80" height="36" fill="#FAFAFA" stroke="#E8E8E8"/>
  <text x="560" y="195" font-family="Arial, sans-serif" font-size="12" font-weight="500" fill="#333">Actual</text>
  <rect x="630" y="172" width="100" height="36" fill="#FAFAFA" stroke="#E8E8E8"/>
  <text x="640" y="195" font-family="Arial, sans-serif" font-size="12" font-weight="500" fill="#333">Rate</text>
  <rect x="730" y="172" width="110" height="36" fill="#FAFAFA" stroke="#E8E8E8"/>
  <text x="740" y="195" font-family="Arial, sans-serif" font-size="12" font-weight="500" fill="#333">Prod. Date</text>
  <rect x="840" y="172" width="164" height="36" fill="#FAFAFA" stroke="#E8E8E8"/>
  <text x="850" y="195" font-family="Arial, sans-serif" font-size="12" font-weight="500" fill="#333">Manager</text>

  <!-- Data Row 1 - EXPANDED -->
  <rect x="20" y="208" width="984" height="40" fill="#E6F4FF" stroke="#91CAFF"/>
  <text x="28" y="234" font-family="Arial, sans-serif" font-size="14" fill="#BFBFBF">::</text>
  <rect x="62" y="222" width="14" height="14" fill="none" stroke="#D9D9D9" rx="2"/>
  <!-- Expanded arrow (down) -->
  <text x="92" y="234" font-family="Arial, sans-serif" font-size="14" font-weight="bold" fill="#1677FF">v</text>
  <text x="126" y="234" font-family="Arial, sans-serif" font-size="12" fill="#333">1</text>
  <text x="186" y="234" font-family="Arial, sans-serif" font-size="12" fill="#333">PRD-001</text>
  <text x="306" y="234" font-family="Arial, sans-serif" font-size="12" fill="#333">Product A</text>
  <text x="480" y="234" font-family="Arial, sans-serif" font-size="12" fill="#333">100</text>
  <text x="560" y="234" font-family="Arial, sans-serif" font-size="12" fill="#333">95</text>
  <text x="640" y="234" font-family="Arial, sans-serif" font-size="12" fill="#FAAD14">95%</text>
  <text x="740" y="234" font-family="Arial, sans-serif" font-size="12" fill="#333">01-20</text>
  <text x="850" y="234" font-family="Arial, sans-serif" font-size="12" fill="#333">Kim Prod</text>

  <!-- EXPANDED CONTENT AREA -->
  <rect x="20" y="248" width="984" height="130" fill="#FAFBFC" stroke="#E8E8E8"/>

  <!-- Expansion Panel Header -->
  <rect x="40" y="258" width="944" height="28" fill="#F5F5F5" stroke="#E8E8E8" rx="4"/>
  <text x="56" y="277" font-family="Arial, sans-serif" font-size="12" font-weight="600" fill="#333">Process Details</text>

  <!-- Nested Table Header -->
  <rect x="40" y="290" width="944" height="28" fill="#FAFAFA" stroke="#E8E8E8"/>
  <text x="60" y="309" font-family="Arial, sans-serif" font-size="11" font-weight="500" fill="#666">Process No.</text>
  <text x="200" y="309" font-family="Arial, sans-serif" font-size="11" font-weight="500" fill="#666">Work Time</text>
  <text x="350" y="309" font-family="Arial, sans-serif" font-size="11" font-weight="500" fill="#666">Defect Count</text>
  <text x="520" y="309" font-family="Arial, sans-serif" font-size="11" font-weight="500" fill="#666">Remarks</text>

  <!-- Nested Table Row 1 -->
  <rect x="40" y="318" width="944" height="28" fill="#FFFFFF" stroke="#E8E8E8"/>
  <text x="60" y="337" font-family="Arial, sans-serif" font-size="11" fill="#333">OP-01</text>
  <text x="200" y="337" font-family="Arial, sans-serif" font-size="11" fill="#333">2.5 hours</text>
  <text x="350" y="337" font-family="Arial, sans-serif" font-size="11" fill="#FF4D4F">3</text>
  <text x="520" y="337" font-family="Arial, sans-serif" font-size="11" fill="#666">Raw material quality issue</text>

  <!-- Nested Table Row 2 -->
  <rect x="40" y="346" width="944" height="28" fill="#FAFAFA" stroke="#E8E8E8"/>
  <text x="60" y="365" font-family="Arial, sans-serif" font-size="11" fill="#333">OP-02</text>
  <text x="200" y="365" font-family="Arial, sans-serif" font-size="11" fill="#333">1.8 hours</text>
  <text x="350" y="365" font-family="Arial, sans-serif" font-size="11" fill="#52C41A">0</text>
  <text x="520" y="365" font-family="Arial, sans-serif" font-size="11" fill="#999">-</text>

  <!-- Data Row 2 -->
  <rect x="20" y="378" width="984" height="40" fill="#FFFFFF" stroke="#E8E8E8"/>
  <text x="28" y="404" font-family="Arial, sans-serif" font-size="14" fill="#BFBFBF">::</text>
  <rect x="62" y="392" width="14" height="14" fill="none" stroke="#D9D9D9" rx="2"/>
  <text x="96" y="404" font-family="Arial, sans-serif" font-size="12" fill="#1677FF">></text>
  <text x="126" y="404" font-family="Arial, sans-serif" font-size="12" fill="#333">2</text>
  <text x="186" y="404" font-family="Arial, sans-serif" font-size="12" fill="#333">PRD-002</text>
  <text x="306" y="404" font-family="Arial, sans-serif" font-size="12" fill="#333">Product B</text>
  <text x="480" y="404" font-family="Arial, sans-serif" font-size="12" fill="#333">200</text>
  <text x="560" y="404" font-family="Arial, sans-serif" font-size="12" fill="#333">210</text>
  <text x="640" y="404" font-family="Arial, sans-serif" font-size="12" fill="#52C41A">105%</text>
  <text x="740" y="404" font-family="Arial, sans-serif" font-size="12" fill="#333">01-20</text>
  <text x="850" y="404" font-family="Arial, sans-serif" font-size="12" fill="#333">Lee QA</text>

  <!-- Data Row 3 -->
  <rect x="20" y="418" width="984" height="40" fill="#FAFAFA" stroke="#E8E8E8"/>
  <text x="28" y="444" font-family="Arial, sans-serif" font-size="14" fill="#BFBFBF">::</text>
  <rect x="62" y="432" width="14" height="14" fill="none" stroke="#D9D9D9" rx="2"/>
  <text x="96" y="444" font-family="Arial, sans-serif" font-size="12" fill="#1677FF">></text>
  <text x="126" y="444" font-family="Arial, sans-serif" font-size="12" fill="#333">3</text>
  <text x="186" y="444" font-family="Arial, sans-serif" font-size="12" fill="#333">PRD-003</text>
  <text x="306" y="444" font-family="Arial, sans-serif" font-size="12" fill="#333">Product C</text>
  <text x="480" y="444" font-family="Arial, sans-serif" font-size="12" fill="#333">150</text>
  <text x="560" y="444" font-family="Arial, sans-serif" font-size="12" fill="#333">148</text>
  <text x="640" y="444" font-family="Arial, sans-serif" font-size="12" fill="#52C41A">99%</text>
  <text x="740" y="444" font-family="Arial, sans-serif" font-size="12" fill="#333">01-20</text>
  <text x="850" y="444" font-family="Arial, sans-serif" font-size="12" fill="#333">Park Maint</text>

  <!-- Data Row 4 -->
  <rect x="20" y="458" width="984" height="40" fill="#FFFFFF" stroke="#E8E8E8"/>
  <text x="28" y="484" font-family="Arial, sans-serif" font-size="14" fill="#BFBFBF">::</text>
  <rect x="62" y="472" width="14" height="14" fill="none" stroke="#D9D9D9" rx="2"/>
  <text x="96" y="484" font-family="Arial, sans-serif" font-size="12" fill="#1677FF">></text>
  <text x="126" y="484" font-family="Arial, sans-serif" font-size="12" fill="#333">4</text>
  <text x="186" y="484" font-family="Arial, sans-serif" font-size="12" fill="#333">PRD-004</text>
  <text x="306" y="484" font-family="Arial, sans-serif" font-size="12" fill="#333">Product A</text>
  <text x="480" y="484" font-family="Arial, sans-serif" font-size="12" fill="#333">100</text>
  <text x="560" y="484" font-family="Arial, sans-serif" font-size="12" fill="#333">102</text>
  <text x="640" y="484" font-family="Arial, sans-serif" font-size="12" fill="#52C41A">102%</text>
  <text x="740" y="484" font-family="Arial, sans-serif" font-size="12" fill="#333">01-21</text>
  <text x="850" y="484" font-family="Arial, sans-serif" font-size="12" fill="#333">Kim Prod</text>

  <!-- Data Row 5 -->
  <rect x="20" y="498" width="984" height="40" fill="#FAFAFA" stroke="#E8E8E8"/>
  <text x="28" y="524" font-family="Arial, sans-serif" font-size="14" fill="#BFBFBF">::</text>
  <rect x="62" y="512" width="14" height="14" fill="none" stroke="#D9D9D9" rx="2"/>
  <text x="96" y="524" font-family="Arial, sans-serif" font-size="12" fill="#1677FF">></text>
  <text x="126" y="524" font-family="Arial, sans-serif" font-size="12" fill="#333">5</text>
  <text x="186" y="524" font-family="Arial, sans-serif" font-size="12" fill="#333">PRD-005</text>
  <text x="306" y="524" font-family="Arial, sans-serif" font-size="12" fill="#333">Product D</text>
  <text x="480" y="524" font-family="Arial, sans-serif" font-size="12" fill="#333">80</text>
  <text x="560" y="524" font-family="Arial, sans-serif" font-size="12" fill="#333">75</text>
  <text x="640" y="524" font-family="Arial, sans-serif" font-size="12" fill="#FF4D4F">94%</text>
  <text x="740" y="524" font-family="Arial, sans-serif" font-size="12" fill="#333">01-21</text>
  <text x="850" y="524" font-family="Arial, sans-serif" font-size="12" fill="#333">Jung Ops</text>

  <!-- Data Row 6 -->
  <rect x="20" y="538" width="984" height="40" fill="#FFFFFF" stroke="#E8E8E8"/>
  <text x="28" y="564" font-family="Arial, sans-serif" font-size="14" fill="#BFBFBF">::</text>
  <rect x="62" y="552" width="14" height="14" fill="none" stroke="#D9D9D9" rx="2"/>
  <text x="96" y="564" font-family="Arial, sans-serif" font-size="12" fill="#1677FF">></text>
  <text x="126" y="564" font-family="Arial, sans-serif" font-size="12" fill="#333">6</text>
  <text x="186" y="564" font-family="Arial, sans-serif" font-size="12" fill="#333">PRD-006</text>
  <text x="306" y="564" font-family="Arial, sans-serif" font-size="12" fill="#333">Product E</text>
  <text x="480" y="564" font-family="Arial, sans-serif" font-size="12" fill="#333">120</text>
  <text x="560" y="564" font-family="Arial, sans-serif" font-size="12" fill="#333">122</text>
  <text x="640" y="564" font-family="Arial, sans-serif" font-size="12" fill="#52C41A">102%</text>
  <text x="740" y="564" font-family="Arial, sans-serif" font-size="12" fill="#333">01-22</text>
  <text x="850" y="564" font-family="Arial, sans-serif" font-size="12" fill="#333">Choi QA</text>

  <!-- Data Row 7 -->
  <rect x="20" y="578" width="984" height="40" fill="#FAFAFA" stroke="#E8E8E8"/>
  <text x="28" y="604" font-family="Arial, sans-serif" font-size="14" fill="#BFBFBF">::</text>
  <rect x="62" y="592" width="14" height="14" fill="none" stroke="#D9D9D9" rx="2"/>
  <text x="96" y="604" font-family="Arial, sans-serif" font-size="12" fill="#1677FF">></text>
  <text x="126" y="604" font-family="Arial, sans-serif" font-size="12" fill="#333">7</text>
  <text x="186" y="604" font-family="Arial, sans-serif" font-size="12" fill="#333">PRD-007</text>
  <text x="306" y="604" font-family="Arial, sans-serif" font-size="12" fill="#333">Product F</text>
  <text x="480" y="604" font-family="Arial, sans-serif" font-size="12" fill="#333">90</text>
  <text x="560" y="604" font-family="Arial, sans-serif" font-size="12" fill="#333">88</text>
  <text x="640" y="604" font-family="Arial, sans-serif" font-size="12" fill="#FAAD14">98%</text>
  <text x="740" y="604" font-family="Arial, sans-serif" font-size="12" fill="#333">01-22</text>
  <text x="850" y="604" font-family="Arial, sans-serif" font-size="12" fill="#333">Kang Prod</text>

  <!-- Data Row 8 -->
  <rect x="20" y="618" width="984" height="40" fill="#FFFFFF" stroke="#E8E8E8"/>
  <text x="28" y="644" font-family="Arial, sans-serif" font-size="14" fill="#BFBFBF">::</text>
  <rect x="62" y="632" width="14" height="14" fill="none" stroke="#D9D9D9" rx="2"/>
  <text x="96" y="644" font-family="Arial, sans-serif" font-size="12" fill="#1677FF">></text>
  <text x="126" y="644" font-family="Arial, sans-serif" font-size="12" fill="#333">8</text>
  <text x="186" y="644" font-family="Arial, sans-serif" font-size="12" fill="#333">PRD-008</text>
  <text x="306" y="644" font-family="Arial, sans-serif" font-size="12" fill="#333">Product G</text>
  <text x="480" y="644" font-family="Arial, sans-serif" font-size="12" fill="#333">180</text>
  <text x="560" y="644" font-family="Arial, sans-serif" font-size="12" fill="#333">185</text>
  <text x="640" y="644" font-family="Arial, sans-serif" font-size="12" fill="#52C41A">103%</text>
  <text x="740" y="644" font-family="Arial, sans-serif" font-size="12" fill="#333">01-23</text>
  <text x="850" y="644" font-family="Arial, sans-serif" font-size="12" fill="#333">Lee QA</text>

  <!-- Pagination -->
  <rect x="20" y="680" width="984" height="40" fill="#FFFFFF" stroke="#D9D9D9"/>
  <text x="36" y="705" font-family="Arial, sans-serif" font-size="13" fill="#666">Total 10,000 items</text>

  <rect x="200" y="690" width="90" height="28" fill="#FFFFFF" stroke="#D9D9D9" rx="4"/>
  <text x="212" y="709" font-family="Arial, sans-serif" font-size="12" fill="#333">20 / page</text>

  <rect x="610" y="690" width="28" height="28" fill="#FFFFFF" stroke="#D9D9D9" rx="4"/>
  <text x="620" y="709" font-family="Arial, sans-serif" font-size="12" fill="#666">&lt;</text>
  <rect x="644" y="690" width="28" height="28" fill="#1677FF" stroke="#1677FF" rx="4"/>
  <text x="654" y="709" font-family="Arial, sans-serif" font-size="12" fill="#FFFFFF">1</text>
  <rect x="678" y="690" width="28" height="28" fill="#FFFFFF" stroke="#D9D9D9" rx="4"/>
  <text x="688" y="709" font-family="Arial, sans-serif" font-size="12" fill="#333">2</text>
  <rect x="712" y="690" width="28" height="28" fill="#FFFFFF" stroke="#D9D9D9" rx="4"/>
  <text x="722" y="709" font-family="Arial, sans-serif" font-size="12" fill="#333">3</text>
  <text x="752" y="709" font-family="Arial, sans-serif" font-size="12" fill="#333">...</text>
  <rect x="780" y="690" width="42" height="28" fill="#FFFFFF" stroke="#D9D9D9" rx="4"/>
  <text x="790" y="709" font-family="Arial, sans-serif" font-size="12" fill="#333">500</text>
  <rect x="828" y="690" width="28" height="28" fill="#FFFFFF" stroke="#D9D9D9" rx="4"/>
  <text x="838" y="709" font-family="Arial, sans-serif" font-size="12" fill="#666">&gt;</text>

  <!-- Footer Note -->
  <text x="20" y="752" font-family="Arial, sans-serif" font-size="10" fill="#999">TSK-06-20 DataTable Showcase - Expanded Row (Row 1 with nested process details)</text>
</svg>
