<svg xmlns="http://www.w3.org/2000/svg" viewBox="0 0 1024 768">
  <!-- Background -->
  <rect width="1024" height="768" fill="#F5F5F5"/>

  <!-- Page Title Bar -->
  <rect x="20" y="20" width="984" height="50" fill="#FFFFFF" stroke="#D9D9D9" rx="4"/>
  <text x="36" y="52" font-family="Arial, sans-serif" font-size="18" font-weight="bold" fill="#333">DataTable Showcase</text>
  <text x="36" y="68" font-family="Arial, sans-serif" font-size="11" fill="#8C8C8C">Inline Edit Mode</text>

  <!-- Reset Button -->
  <rect x="890" y="32" width="100" height="28" fill="#FFFFFF" stroke="#D9D9D9" rx="4"/>
  <text x="908" y="51" font-family="Arial, sans-serif" font-size="12" fill="#333">Reset Settings</text>

  <!-- Feature Toggle Panel (Collapsed View) -->
  <rect x="20" y="80" width="984" height="50" fill="#FFFFFF" stroke="#D9D9D9" rx="4"/>
  <text x="36" y="110" font-family="Arial, sans-serif" font-size="12" font-weight="500" fill="#666">Feature Toggles (Inline Edit: ON)</text>

  <!-- Toggle indicators (mini) -->
  <rect x="280" y="95" width="24" height="14" fill="#1677FF" rx="7"/>
  <circle cx="296" cy="102" r="5" fill="#FFFFFF"/>
  <text x="310" y="106" font-family="Arial, sans-serif" font-size="10" fill="#333">Inline Edit</text>

  <rect x="410" y="95" width="24" height="14" fill="#1677FF" rx="7"/>
  <circle cx="426" cy="102" r="5" fill="#FFFFFF"/>
  <text x="440" y="106" font-family="Arial, sans-serif" font-size="10" fill="#333">+11 more</text>

  <!-- Data Table Container -->
  <rect x="20" y="140" width="984" height="540" fill="#FFFFFF" stroke="#D9D9D9" rx="4"/>

  <!-- Group Header Row -->
  <rect x="20" y="140" width="984" height="32" fill="#F0F5FF" stroke="#D9D9D9"/>
  <rect x="20" y="140" width="450" height="32" fill="#F0F5FF" stroke="#ADC6FF"/>
  <text x="220" y="161" font-family="Arial, sans-serif" font-size="12" font-weight="600" fill="#1D39C4" text-anchor="middle">Basic Info</text>
  <rect x="470" y="140" width="534" height="32" fill="#F6FFED" stroke="#B7EB8F"/>
  <text x="737" y="161" font-family="Arial, sans-serif" font-size="12" font-weight="600" fill="#389E0D" text-anchor="middle">Performance</text>

  <!-- Column Header Row -->
  <rect x="20" y="172" width="984" height="36" fill="#FAFAFA" stroke="#D9D9D9"/>

  <!-- Column Headers -->
  <rect x="20" y="172" width="30" height="36" fill="#FAFAFA" stroke="#E8E8E8"/>
  <rect x="50" y="172" width="36" height="36" fill="#FAFAFA" stroke="#E8E8E8"/>
  <rect x="62" y="184" width="14" height="14" fill="none" stroke="#D9D9D9" rx="2"/>
  <rect x="86" y="172" width="30" height="36" fill="#FAFAFA" stroke="#E8E8E8"/>
  <rect x="116" y="172" width="60" height="36" fill="#FAFAFA" stroke="#E8E8E8"/>
  <text x="126" y="195" font-family="Arial, sans-serif" font-size="12" font-weight="500" fill="#333">ID</text>
  <rect x="176" y="172" width="120" height="36" fill="#FAFAFA" stroke="#E8E8E8"/>
  <text x="186" y="195" font-family="Arial, sans-serif" font-size="12" font-weight="500" fill="#333">Product Code</text>
  <rect x="296" y="172" width="174" height="36" fill="#FAFAFA" stroke="#E8E8E8"/>
  <text x="306" y="195" font-family="Arial, sans-serif" font-size="12" font-weight="500" fill="#333">Product Name</text>
  <rect x="470" y="172" width="80" height="36" fill="#FAFAFA" stroke="#E8E8E8"/>
  <text x="480" y="195" font-family="Arial, sans-serif" font-size="12" font-weight="500" fill="#333">Target</text>
  <rect x="550" y="172" width="80" height="36" fill="#FAFAFA" stroke="#E8E8E8"/>
  <text x="560" y="195" font-family="Arial, sans-serif" font-size="12" font-weight="500" fill="#333">Actual</text>
  <rect x="630" y="172" width="100" height="36" fill="#FAFAFA" stroke="#E8E8E8"/>
  <text x="640" y="195" font-family="Arial, sans-serif" font-size="12" font-weight="500" fill="#333">Rate</text>
  <rect x="730" y="172" width="110" height="36" fill="#FAFAFA" stroke="#E8E8E8"/>
  <text x="740" y="195" font-family="Arial, sans-serif" font-size="12" font-weight="500" fill="#333">Prod. Date</text>
  <rect x="840" y="172" width="164" height="36" fill="#FAFAFA" stroke="#E8E8E8"/>
  <text x="850" y="195" font-family="Arial, sans-serif" font-size="12" font-weight="500" fill="#333">Manager</text>

  <!-- Data Row 1 -->
  <rect x="20" y="208" width="984" height="40" fill="#FFFFFF" stroke="#E8E8E8"/>
  <text x="28" y="234" font-family="Arial, sans-serif" font-size="14" fill="#BFBFBF">::</text>
  <rect x="62" y="222" width="14" height="14" fill="none" stroke="#D9D9D9" rx="2"/>
  <text x="96" y="234" font-family="Arial, sans-serif" font-size="12" fill="#1677FF">></text>
  <text x="126" y="234" font-family="Arial, sans-serif" font-size="12" fill="#333">1</text>
  <text x="186" y="234" font-family="Arial, sans-serif" font-size="12" fill="#333">PRD-001</text>
  <text x="306" y="234" font-family="Arial, sans-serif" font-size="12" fill="#333">Product A</text>
  <text x="480" y="234" font-family="Arial, sans-serif" font-size="12" fill="#333">100</text>
  <text x="560" y="234" font-family="Arial, sans-serif" font-size="12" fill="#333">95</text>
  <text x="640" y="234" font-family="Arial, sans-serif" font-size="12" fill="#FAAD14">95%</text>
  <text x="740" y="234" font-family="Arial, sans-serif" font-size="12" fill="#333">01-20</text>
  <text x="850" y="234" font-family="Arial, sans-serif" font-size="12" fill="#333">Kim Prod</text>

  <!-- Data Row 2 - EDITING ROW -->
  <rect x="20" y="248" width="984" height="40" fill="#E6F4FF" stroke="#91CAFF"/>

  <!-- Row content before edit cell -->
  <text x="28" y="274" font-family="Arial, sans-serif" font-size="14" fill="#BFBFBF">::</text>
  <rect x="62" y="262" width="14" height="14" fill="#1677FF" stroke="#1677FF" rx="2"/>
  <polyline points="65,269 68,272 73,266" fill="none" stroke="#FFFFFF" stroke-width="2"/>
  <text x="96" y="274" font-family="Arial, sans-serif" font-size="12" fill="#1677FF">></text>
  <text x="126" y="274" font-family="Arial, sans-serif" font-size="12" fill="#333">2</text>
  <text x="186" y="274" font-family="Arial, sans-serif" font-size="12" fill="#333">PRD-002</text>

  <!-- INLINE EDIT INPUT - Product Name -->
  <rect x="296" y="252" width="170" height="32" fill="#FFFFFF" stroke="#1677FF" stroke-width="2" rx="4"/>
  <text x="306" y="274" font-family="Arial, sans-serif" font-size="12" fill="#333">Product B-New</text>
  <line x1="386" y1="260" x2="386" y2="280" stroke="#1677FF" stroke-width="2">
    <animate attributeName="opacity" values="1;0;1" dur="1s" repeatCount="indefinite"/>
  </line>

  <!-- Rest of row 2 -->
  <text x="480" y="274" font-family="Arial, sans-serif" font-size="12" fill="#333">200</text>
  <text x="560" y="274" font-family="Arial, sans-serif" font-size="12" fill="#333">210</text>
  <text x="640" y="274" font-family="Arial, sans-serif" font-size="12" fill="#52C41A">105%</text>
  <text x="740" y="274" font-family="Arial, sans-serif" font-size="12" fill="#333">01-20</text>
  <text x="850" y="274" font-family="Arial, sans-serif" font-size="12" fill="#333">Lee QA</text>

  <!-- Data Row 3 -->
  <rect x="20" y="288" width="984" height="40" fill="#FFFFFF" stroke="#E8E8E8"/>
  <text x="28" y="314" font-family="Arial, sans-serif" font-size="14" fill="#BFBFBF">::</text>
  <rect x="62" y="302" width="14" height="14" fill="none" stroke="#D9D9D9" rx="2"/>
  <text x="96" y="314" font-family="Arial, sans-serif" font-size="12" fill="#1677FF">></text>
  <text x="126" y="314" font-family="Arial, sans-serif" font-size="12" fill="#333">3</text>
  <text x="186" y="314" font-family="Arial, sans-serif" font-size="12" fill="#333">PRD-003</text>
  <text x="306" y="314" font-family="Arial, sans-serif" font-size="12" fill="#333">Product C</text>
  <text x="480" y="314" font-family="Arial, sans-serif" font-size="12" fill="#333">150</text>
  <text x="560" y="314" font-family="Arial, sans-serif" font-size="12" fill="#333">148</text>
  <text x="640" y="314" font-family="Arial, sans-serif" font-size="12" fill="#52C41A">99%</text>
  <text x="740" y="314" font-family="Arial, sans-serif" font-size="12" fill="#333">01-20</text>
  <text x="850" y="314" font-family="Arial, sans-serif" font-size="12" fill="#333">Park Maint</text>

  <!-- Data Row 4 -->
  <rect x="20" y="328" width="984" height="40" fill="#FAFAFA" stroke="#E8E8E8"/>
  <text x="28" y="354" font-family="Arial, sans-serif" font-size="14" fill="#BFBFBF">::</text>
  <rect x="62" y="342" width="14" height="14" fill="none" stroke="#D9D9D9" rx="2"/>
  <text x="96" y="354" font-family="Arial, sans-serif" font-size="12" fill="#1677FF">></text>
  <text x="126" y="354" font-family="Arial, sans-serif" font-size="12" fill="#333">4</text>
  <text x="186" y="354" font-family="Arial, sans-serif" font-size="12" fill="#333">PRD-004</text>
  <text x="306" y="354" font-family="Arial, sans-serif" font-size="12" fill="#333">Product A</text>
  <text x="480" y="354" font-family="Arial, sans-serif" font-size="12" fill="#333">100</text>
  <text x="560" y="354" font-family="Arial, sans-serif" font-size="12" fill="#333">102</text>
  <text x="640" y="354" font-family="Arial, sans-serif" font-size="12" fill="#52C41A">102%</text>
  <text x="740" y="354" font-family="Arial, sans-serif" font-size="12" fill="#333">01-21</text>
  <text x="850" y="354" font-family="Arial, sans-serif" font-size="12" fill="#333">Kim Prod</text>

  <!-- Data Row 5 -->
  <rect x="20" y="368" width="984" height="40" fill="#FFFFFF" stroke="#E8E8E8"/>
  <text x="28" y="394" font-family="Arial, sans-serif" font-size="14" fill="#BFBFBF">::</text>
  <rect x="62" y="382" width="14" height="14" fill="none" stroke="#D9D9D9" rx="2"/>
  <text x="96" y="394" font-family="Arial, sans-serif" font-size="12" fill="#1677FF">></text>
  <text x="126" y="394" font-family="Arial, sans-serif" font-size="12" fill="#333">5</text>
  <text x="186" y="394" font-family="Arial, sans-serif" font-size="12" fill="#333">PRD-005</text>
  <text x="306" y="394" font-family="Arial, sans-serif" font-size="12" fill="#333">Product D</text>
  <text x="480" y="394" font-family="Arial, sans-serif" font-size="12" fill="#333">80</text>
  <text x="560" y="394" font-family="Arial, sans-serif" font-size="12" fill="#333">75</text>
  <text x="640" y="394" font-family="Arial, sans-serif" font-size="12" fill="#FF4D4F">94%</text>
  <text x="740" y="394" font-family="Arial, sans-serif" font-size="12" fill="#333">01-21</text>
  <text x="850" y="394" font-family="Arial, sans-serif" font-size="12" fill="#333">Jung Ops</text>

  <!-- Data Row 6 -->
  <rect x="20" y="408" width="984" height="40" fill="#FAFAFA" stroke="#E8E8E8"/>
  <text x="28" y="434" font-family="Arial, sans-serif" font-size="14" fill="#BFBFBF">::</text>
  <rect x="62" y="422" width="14" height="14" fill="none" stroke="#D9D9D9" rx="2"/>
  <text x="96" y="434" font-family="Arial, sans-serif" font-size="12" fill="#1677FF">></text>
  <text x="126" y="434" font-family="Arial, sans-serif" font-size="12" fill="#333">6</text>
  <text x="186" y="434" font-family="Arial, sans-serif" font-size="12" fill="#333">PRD-006</text>
  <text x="306" y="434" font-family="Arial, sans-serif" font-size="12" fill="#333">Product E</text>
  <text x="480" y="434" font-family="Arial, sans-serif" font-size="12" fill="#333">120</text>
  <text x="560" y="434" font-family="Arial, sans-serif" font-size="12" fill="#333">122</text>
  <text x="640" y="434" font-family="Arial, sans-serif" font-size="12" fill="#52C41A">102%</text>
  <text x="740" y="434" font-family="Arial, sans-serif" font-size="12" fill="#333">01-22</text>
  <text x="850" y="434" font-family="Arial, sans-serif" font-size="12" fill="#333">Choi QA</text>

  <!-- Data Row 7 -->
  <rect x="20" y="448" width="984" height="40" fill="#FFFFFF" stroke="#E8E8E8"/>
  <text x="28" y="474" font-family="Arial, sans-serif" font-size="14" fill="#BFBFBF">::</text>
  <rect x="62" y="462" width="14" height="14" fill="none" stroke="#D9D9D9" rx="2"/>
  <text x="96" y="474" font-family="Arial, sans-serif" font-size="12" fill="#1677FF">></text>
  <text x="126" y="474" font-family="Arial, sans-serif" font-size="12" fill="#333">7</text>
  <text x="186" y="474" font-family="Arial, sans-serif" font-size="12" fill="#333">PRD-007</text>
  <text x="306" y="474" font-family="Arial, sans-serif" font-size="12" fill="#333">Product F</text>
  <text x="480" y="474" font-family="Arial, sans-serif" font-size="12" fill="#333">90</text>
  <text x="560" y="474" font-family="Arial, sans-serif" font-size="12" fill="#333">88</text>
  <text x="640" y="474" font-family="Arial, sans-serif" font-size="12" fill="#FAAD14">98%</text>
  <text x="740" y="474" font-family="Arial, sans-serif" font-size="12" fill="#333">01-22</text>
  <text x="850" y="474" font-family="Arial, sans-serif" font-size="12" fill="#333">Kang Prod</text>

  <!-- Data Row 8 -->
  <rect x="20" y="488" width="984" height="40" fill="#FAFAFA" stroke="#E8E8E8"/>
  <text x="28" y="514" font-family="Arial, sans-serif" font-size="14" fill="#BFBFBF">::</text>
  <rect x="62" y="502" width="14" height="14" fill="none" stroke="#D9D9D9" rx="2"/>
  <text x="96" y="514" font-family="Arial, sans-serif" font-size="12" fill="#1677FF">></text>
  <text x="126" y="514" font-family="Arial, sans-serif" font-size="12" fill="#333">8</text>
  <text x="186" y="514" font-family="Arial, sans-serif" font-size="12" fill="#333">PRD-008</text>
  <text x="306" y="514" font-family="Arial, sans-serif" font-size="12" fill="#333">Product G</text>
  <text x="480" y="514" font-family="Arial, sans-serif" font-size="12" fill="#333">180</text>
  <text x="560" y="514" font-family="Arial, sans-serif" font-size="12" fill="#333">185</text>
  <text x="640" y="514" font-family="Arial, sans-serif" font-size="12" fill="#52C41A">103%</text>
  <text x="740" y="514" font-family="Arial, sans-serif" font-size="12" fill="#333">01-23</text>
  <text x="850" y="514" font-family="Arial, sans-serif" font-size="12" fill="#333">Lee QA</text>

  <!-- Data Row 9 -->
  <rect x="20" y="528" width="984" height="40" fill="#FFFFFF" stroke="#E8E8E8"/>
  <text x="28" y="554" font-family="Arial, sans-serif" font-size="14" fill="#BFBFBF">::</text>
  <rect x="62" y="542" width="14" height="14" fill="none" stroke="#D9D9D9" rx="2"/>
  <text x="96" y="554" font-family="Arial, sans-serif" font-size="12" fill="#1677FF">></text>
  <text x="126" y="554" font-family="Arial, sans-serif" font-size="12" fill="#333">9</text>
  <text x="186" y="554" font-family="Arial, sans-serif" font-size="12" fill="#333">PRD-009</text>
  <text x="306" y="554" font-family="Arial, sans-serif" font-size="12" fill="#333">Product H</text>
  <text x="480" y="554" font-family="Arial, sans-serif" font-size="12" fill="#333">110</text>
  <text x="560" y="554" font-family="Arial, sans-serif" font-size="12" fill="#333">108</text>
  <text x="640" y="554" font-family="Arial, sans-serif" font-size="12" fill="#FAAD14">98%</text>
  <text x="740" y="554" font-family="Arial, sans-serif" font-size="12" fill="#333">01-23</text>
  <text x="850" y="554" font-family="Arial, sans-serif" font-size="12" fill="#333">Park Maint</text>

  <!-- Data Row 10 -->
  <rect x="20" y="568" width="984" height="40" fill="#FAFAFA" stroke="#E8E8E8"/>
  <text x="28" y="594" font-family="Arial, sans-serif" font-size="14" fill="#BFBFBF">::</text>
  <rect x="62" y="582" width="14" height="14" fill="none" stroke="#D9D9D9" rx="2"/>
  <text x="96" y="594" font-family="Arial, sans-serif" font-size="12" fill="#1677FF">></text>
  <text x="126" y="594" font-family="Arial, sans-serif" font-size="12" fill="#333">10</text>
  <text x="186" y="594" font-family="Arial, sans-serif" font-size="12" fill="#333">PRD-010</text>
  <text x="306" y="594" font-family="Arial, sans-serif" font-size="12" fill="#333">Product I</text>
  <text x="480" y="594" font-family="Arial, sans-serif" font-size="12" fill="#333">140</text>
  <text x="560" y="594" font-family="Arial, sans-serif" font-size="12" fill="#333">145</text>
  <text x="640" y="594" font-family="Arial, sans-serif" font-size="12" fill="#52C41A">104%</text>
  <text x="740" y="594" font-family="Arial, sans-serif" font-size="12" fill="#333">01-23</text>
  <text x="850" y="594" font-family="Arial, sans-serif" font-size="12" fill="#333">Jung Ops</text>

  <!-- Edit Help Bar -->
  <rect x="20" y="628" width="984" height="32" fill="#E6F7FF" stroke="#91D5FF" rx="0 0 4 4"/>
  <circle cx="40" cy="644" r="10" fill="#1677FF"/>
  <text x="37" y="648" font-family="Arial, sans-serif" font-size="10" font-weight="bold" fill="#FFFFFF">i</text>
  <text x="60" y="649" font-family="Arial, sans-serif" font-size="12" fill="#0958D9">Editing: Press Enter to save, ESC to cancel</text>

  <!-- Keyboard shortcuts hint -->
  <rect x="400" y="636" width="50" height="20" fill="#FFFFFF" stroke="#D9D9D9" rx="3"/>
  <text x="413" y="650" font-family="monospace" font-size="10" fill="#333">Enter</text>
  <text x="460" y="649" font-family="Arial, sans-serif" font-size="11" fill="#666">Save</text>

  <rect x="520" y="636" width="40" height="20" fill="#FFFFFF" stroke="#D9D9D9" rx="3"/>
  <text x="530" y="650" font-family="monospace" font-size="10" fill="#333">ESC</text>
  <text x="570" y="649" font-family="Arial, sans-serif" font-size="11" fill="#666">Cancel</text>

  <rect x="640" y="636" width="30" height="20" fill="#FFFFFF" stroke="#D9D9D9" rx="3"/>
  <text x="648" y="650" font-family="monospace" font-size="10" fill="#333">Tab</text>
  <text x="680" y="649" font-family="Arial, sans-serif" font-size="11" fill="#666">Next Cell</text>

  <!-- Pagination -->
  <rect x="20" y="680" width="984" height="40" fill="#FFFFFF" stroke="#D9D9D9"/>
  <text x="36" y="705" font-family="Arial, sans-serif" font-size="13" fill="#666">Total 10,000 items</text>

  <rect x="200" y="690" width="90" height="28" fill="#FFFFFF" stroke="#D9D9D9" rx="4"/>
  <text x="212" y="709" font-family="Arial, sans-serif" font-size="12" fill="#333">20 / page</text>

  <rect x="610" y="690" width="28" height="28" fill="#FFFFFF" stroke="#D9D9D9" rx="4"/>
  <text x="620" y="709" font-family="Arial, sans-serif" font-size="12" fill="#666">&lt;</text>
  <rect x="644" y="690" width="28" height="28" fill="#1677FF" stroke="#1677FF" rx="4"/>
  <text x="654" y="709" font-family="Arial, sans-serif" font-size="12" fill="#FFFFFF">1</text>
  <rect x="678" y="690" width="28" height="28" fill="#FFFFFF" stroke="#D9D9D9" rx="4"/>
  <text x="688" y="709" font-family="Arial, sans-serif" font-size="12" fill="#333">2</text>
  <rect x="712" y="690" width="28" height="28" fill="#FFFFFF" stroke="#D9D9D9" rx="4"/>
  <text x="722" y="709" font-family="Arial, sans-serif" font-size="12" fill="#333">3</text>
  <text x="752" y="709" font-family="Arial, sans-serif" font-size="12" fill="#333">...</text>
  <rect x="780" y="690" width="42" height="28" fill="#FFFFFF" stroke="#D9D9D9" rx="4"/>
  <text x="790" y="709" font-family="Arial, sans-serif" font-size="12" fill="#333">500</text>
  <rect x="828" y="690" width="28" height="28" fill="#FFFFFF" stroke="#D9D9D9" rx="4"/>
  <text x="838" y="709" font-family="Arial, sans-serif" font-size="12" fill="#666">&gt;</text>

  <!-- Footer Note -->
  <text x="20" y="752" font-family="Arial, sans-serif" font-size="10" fill="#999">TSK-06-20 DataTable Showcase - Inline Edit Mode (Row 2, Product Name cell)</text>
</svg>
