<svg xmlns="http://www.w3.org/2000/svg" viewBox="0 0 1024 768">
  <!-- Background -->
  <rect width="1024" height="768" fill="#F5F5F5"/>

  <!-- Page Title Bar -->
  <rect x="20" y="20" width="984" height="50" fill="#FFFFFF" stroke="#D9D9D9" rx="4"/>
  <text x="36" y="52" font-family="Arial, sans-serif" font-size="18" font-weight="bold" fill="#333">DataTable Showcase</text>
  <text x="36" y="68" font-family="Arial, sans-serif" font-size="11" fill="#8C8C8C">Virtual Scroll (10,000 records)</text>

  <!-- Reset Button -->
  <rect x="890" y="32" width="100" height="28" fill="#FFFFFF" stroke="#D9D9D9" rx="4"/>
  <text x="908" y="51" font-family="Arial, sans-serif" font-size="12" fill="#333">Reset Settings</text>

  <!-- Feature Toggle Panel (Collapsed View) -->
  <rect x="20" y="80" width="984" height="50" fill="#FFFFFF" stroke="#D9D9D9" rx="4"/>
  <text x="36" y="110" font-family="Arial, sans-serif" font-size="12" font-weight="500" fill="#666">Feature Toggles (Virtual Scroll: ON)</text>

  <!-- Toggle indicators (mini) -->
  <rect x="280" y="95" width="24" height="14" fill="#1677FF" rx="7"/>
  <circle cx="296" cy="102" r="5" fill="#FFFFFF"/>
  <text x="310" y="106" font-family="Arial, sans-serif" font-size="10" fill="#333">Virtual Scroll</text>

  <rect x="430" y="95" width="24" height="14" fill="#1677FF" rx="7"/>
  <circle cx="446" cy="102" r="5" fill="#FFFFFF"/>
  <text x="460" y="106" font-family="Arial, sans-serif" font-size="10" fill="#333">+11 more</text>

  <!-- Performance Indicator -->
  <rect x="780" y="90" width="180" height="30" fill="#F6FFED" stroke="#B7EB8F" rx="4"/>
  <circle cx="798" cy="105" r="6" fill="#52C41A"/>
  <text x="812" y="110" font-family="Arial, sans-serif" font-size="11" fill="#389E0D">Rendering: 20/10,000 rows</text>

  <!-- Data Table Container -->
  <rect x="20" y="140" width="984" height="540" fill="#FFFFFF" stroke="#D9D9D9" rx="4"/>

  <!-- Group Header Row -->
  <rect x="20" y="140" width="970" height="32" fill="#F0F5FF" stroke="#D9D9D9"/>
  <rect x="20" y="140" width="450" height="32" fill="#F0F5FF" stroke="#ADC6FF"/>
  <text x="220" y="161" font-family="Arial, sans-serif" font-size="12" font-weight="600" fill="#1D39C4" text-anchor="middle">Basic Info</text>
  <rect x="470" y="140" width="520" height="32" fill="#F6FFED" stroke="#B7EB8F"/>
  <text x="730" y="161" font-family="Arial, sans-serif" font-size="12" font-weight="600" fill="#389E0D" text-anchor="middle">Performance</text>

  <!-- Column Header Row -->
  <rect x="20" y="172" width="970" height="36" fill="#FAFAFA" stroke="#D9D9D9"/>

  <!-- Column Headers -->
  <rect x="20" y="172" width="30" height="36" fill="#FAFAFA" stroke="#E8E8E8"/>
  <rect x="50" y="172" width="36" height="36" fill="#FAFAFA" stroke="#E8E8E8"/>
  <rect x="62" y="184" width="14" height="14" fill="none" stroke="#D9D9D9" rx="2"/>
  <rect x="86" y="172" width="30" height="36" fill="#FAFAFA" stroke="#E8E8E8"/>
  <rect x="116" y="172" width="60" height="36" fill="#FAFAFA" stroke="#E8E8E8"/>
  <text x="126" y="195" font-family="Arial, sans-serif" font-size="12" font-weight="500" fill="#333">ID</text>
  <rect x="176" y="172" width="120" height="36" fill="#FAFAFA" stroke="#E8E8E8"/>
  <text x="186" y="195" font-family="Arial, sans-serif" font-size="12" font-weight="500" fill="#333">Product Code</text>
  <rect x="296" y="172" width="174" height="36" fill="#FAFAFA" stroke="#E8E8E8"/>
  <text x="306" y="195" font-family="Arial, sans-serif" font-size="12" font-weight="500" fill="#333">Product Name</text>
  <rect x="470" y="172" width="80" height="36" fill="#FAFAFA" stroke="#E8E8E8"/>
  <text x="480" y="195" font-family="Arial, sans-serif" font-size="12" font-weight="500" fill="#333">Target</text>
  <rect x="550" y="172" width="80" height="36" fill="#FAFAFA" stroke="#E8E8E8"/>
  <text x="560" y="195" font-family="Arial, sans-serif" font-size="12" font-weight="500" fill="#333">Actual</text>
  <rect x="630" y="172" width="100" height="36" fill="#FAFAFA" stroke="#E8E8E8"/>
  <text x="640" y="195" font-family="Arial, sans-serif" font-size="12" font-weight="500" fill="#333">Rate</text>
  <rect x="730" y="172" width="110" height="36" fill="#FAFAFA" stroke="#E8E8E8"/>
  <text x="740" y="195" font-family="Arial, sans-serif" font-size="12" font-weight="500" fill="#333">Prod. Date</text>
  <rect x="840" y="172" width="150" height="36" fill="#FAFAFA" stroke="#E8E8E8"/>
  <text x="850" y="195" font-family="Arial, sans-serif" font-size="12" font-weight="500" fill="#333">Manager</text>

  <!-- Data Rows - Showing mid-scroll position (around 5000) -->

  <!-- Data Row 5001 -->
  <rect x="20" y="208" width="970" height="40" fill="#FFFFFF" stroke="#E8E8E8"/>
  <text x="28" y="234" font-family="Arial, sans-serif" font-size="14" fill="#BFBFBF">::</text>
  <rect x="62" y="222" width="14" height="14" fill="none" stroke="#D9D9D9" rx="2"/>
  <text x="96" y="234" font-family="Arial, sans-serif" font-size="12" fill="#1677FF">></text>
  <text x="126" y="234" font-family="Arial, sans-serif" font-size="12" fill="#333">5,001</text>
  <text x="186" y="234" font-family="Arial, sans-serif" font-size="12" fill="#333">PRD-5001</text>
  <text x="306" y="234" font-family="Arial, sans-serif" font-size="12" fill="#333">Product E</text>
  <text x="480" y="234" font-family="Arial, sans-serif" font-size="12" fill="#333">120</text>
  <text x="560" y="234" font-family="Arial, sans-serif" font-size="12" fill="#333">118</text>
  <text x="640" y="234" font-family="Arial, sans-serif" font-size="12" fill="#FAAD14">98%</text>
  <text x="740" y="234" font-family="Arial, sans-serif" font-size="12" fill="#333">01-15</text>
  <text x="850" y="234" font-family="Arial, sans-serif" font-size="12" fill="#333">Kim Prod</text>

  <!-- Data Row 5002 -->
  <rect x="20" y="248" width="970" height="40" fill="#FAFAFA" stroke="#E8E8E8"/>
  <text x="28" y="274" font-family="Arial, sans-serif" font-size="14" fill="#BFBFBF">::</text>
  <rect x="62" y="262" width="14" height="14" fill="none" stroke="#D9D9D9" rx="2"/>
  <text x="96" y="274" font-family="Arial, sans-serif" font-size="12" fill="#1677FF">></text>
  <text x="126" y="274" font-family="Arial, sans-serif" font-size="12" fill="#333">5,002</text>
  <text x="186" y="274" font-family="Arial, sans-serif" font-size="12" fill="#333">PRD-5002</text>
  <text x="306" y="274" font-family="Arial, sans-serif" font-size="12" fill="#333">Product F</text>
  <text x="480" y="274" font-family="Arial, sans-serif" font-size="12" fill="#333">90</text>
  <text x="560" y="274" font-family="Arial, sans-serif" font-size="12" fill="#333">92</text>
  <text x="640" y="274" font-family="Arial, sans-serif" font-size="12" fill="#52C41A">102%</text>
  <text x="740" y="274" font-family="Arial, sans-serif" font-size="12" fill="#333">01-15</text>
  <text x="850" y="274" font-family="Arial, sans-serif" font-size="12" fill="#333">Lee QA</text>

  <!-- Data Row 5003 -->
  <rect x="20" y="288" width="970" height="40" fill="#FFFFFF" stroke="#E8E8E8"/>
  <text x="28" y="314" font-family="Arial, sans-serif" font-size="14" fill="#BFBFBF">::</text>
  <rect x="62" y="302" width="14" height="14" fill="none" stroke="#D9D9D9" rx="2"/>
  <text x="96" y="314" font-family="Arial, sans-serif" font-size="12" fill="#1677FF">></text>
  <text x="126" y="314" font-family="Arial, sans-serif" font-size="12" fill="#333">5,003</text>
  <text x="186" y="314" font-family="Arial, sans-serif" font-size="12" fill="#333">PRD-5003</text>
  <text x="306" y="314" font-family="Arial, sans-serif" font-size="12" fill="#333">Product G</text>
  <text x="480" y="314" font-family="Arial, sans-serif" font-size="12" fill="#333">180</text>
  <text x="560" y="314" font-family="Arial, sans-serif" font-size="12" fill="#333">175</text>
  <text x="640" y="314" font-family="Arial, sans-serif" font-size="12" fill="#FAAD14">97%</text>
  <text x="740" y="314" font-family="Arial, sans-serif" font-size="12" fill="#333">01-15</text>
  <text x="850" y="314" font-family="Arial, sans-serif" font-size="12" fill="#333">Park Maint</text>

  <!-- Data Row 5004 -->
  <rect x="20" y="328" width="970" height="40" fill="#FAFAFA" stroke="#E8E8E8"/>
  <text x="28" y="354" font-family="Arial, sans-serif" font-size="14" fill="#BFBFBF">::</text>
  <rect x="62" y="342" width="14" height="14" fill="none" stroke="#D9D9D9" rx="2"/>
  <text x="96" y="354" font-family="Arial, sans-serif" font-size="12" fill="#1677FF">></text>
  <text x="126" y="354" font-family="Arial, sans-serif" font-size="12" fill="#333">5,004</text>
  <text x="186" y="354" font-family="Arial, sans-serif" font-size="12" fill="#333">PRD-5004</text>
  <text x="306" y="354" font-family="Arial, sans-serif" font-size="12" fill="#333">Product H</text>
  <text x="480" y="354" font-family="Arial, sans-serif" font-size="12" fill="#333">110</text>
  <text x="560" y="354" font-family="Arial, sans-serif" font-size="12" fill="#333">115</text>
  <text x="640" y="354" font-family="Arial, sans-serif" font-size="12" fill="#52C41A">105%</text>
  <text x="740" y="354" font-family="Arial, sans-serif" font-size="12" fill="#333">01-15</text>
  <text x="850" y="354" font-family="Arial, sans-serif" font-size="12" fill="#333">Jung Ops</text>

  <!-- Data Row 5005 -->
  <rect x="20" y="368" width="970" height="40" fill="#FFFFFF" stroke="#E8E8E8"/>
  <text x="28" y="394" font-family="Arial, sans-serif" font-size="14" fill="#BFBFBF">::</text>
  <rect x="62" y="382" width="14" height="14" fill="none" stroke="#D9D9D9" rx="2"/>
  <text x="96" y="394" font-family="Arial, sans-serif" font-size="12" fill="#1677FF">></text>
  <text x="126" y="394" font-family="Arial, sans-serif" font-size="12" fill="#333">5,005</text>
  <text x="186" y="394" font-family="Arial, sans-serif" font-size="12" fill="#333">PRD-5005</text>
  <text x="306" y="394" font-family="Arial, sans-serif" font-size="12" fill="#333">Product I</text>
  <text x="480" y="394" font-family="Arial, sans-serif" font-size="12" fill="#333">140</text>
  <text x="560" y="394" font-family="Arial, sans-serif" font-size="12" fill="#333">138</text>
  <text x="640" y="394" font-family="Arial, sans-serif" font-size="12" fill="#52C41A">99%</text>
  <text x="740" y="394" font-family="Arial, sans-serif" font-size="12" fill="#333">01-16</text>
  <text x="850" y="394" font-family="Arial, sans-serif" font-size="12" fill="#333">Choi QA</text>

  <!-- Data Row 5006 -->
  <rect x="20" y="408" width="970" height="40" fill="#FAFAFA" stroke="#E8E8E8"/>
  <text x="28" y="434" font-family="Arial, sans-serif" font-size="14" fill="#BFBFBF">::</text>
  <rect x="62" y="422" width="14" height="14" fill="none" stroke="#D9D9D9" rx="2"/>
  <text x="96" y="434" font-family="Arial, sans-serif" font-size="12" fill="#1677FF">></text>
  <text x="126" y="434" font-family="Arial, sans-serif" font-size="12" fill="#333">5,006</text>
  <text x="186" y="434" font-family="Arial, sans-serif" font-size="12" fill="#333">PRD-5006</text>
  <text x="306" y="434" font-family="Arial, sans-serif" font-size="12" fill="#333">Product J</text>
  <text x="480" y="434" font-family="Arial, sans-serif" font-size="12" fill="#333">160</text>
  <text x="560" y="434" font-family="Arial, sans-serif" font-size="12" fill="#333">162</text>
  <text x="640" y="434" font-family="Arial, sans-serif" font-size="12" fill="#52C41A">101%</text>
  <text x="740" y="434" font-family="Arial, sans-serif" font-size="12" fill="#333">01-16</text>
  <text x="850" y="434" font-family="Arial, sans-serif" font-size="12" fill="#333">Kang Prod</text>

  <!-- Data Row 5007 -->
  <rect x="20" y="448" width="970" height="40" fill="#FFFFFF" stroke="#E8E8E8"/>
  <text x="28" y="474" font-family="Arial, sans-serif" font-size="14" fill="#BFBFBF">::</text>
  <rect x="62" y="462" width="14" height="14" fill="none" stroke="#D9D9D9" rx="2"/>
  <text x="96" y="474" font-family="Arial, sans-serif" font-size="12" fill="#1677FF">></text>
  <text x="126" y="474" font-family="Arial, sans-serif" font-size="12" fill="#333">5,007</text>
  <text x="186" y="474" font-family="Arial, sans-serif" font-size="12" fill="#333">PRD-5007</text>
  <text x="306" y="474" font-family="Arial, sans-serif" font-size="12" fill="#333">Product K</text>
  <text x="480" y="474" font-family="Arial, sans-serif" font-size="12" fill="#333">100</text>
  <text x="560" y="474" font-family="Arial, sans-serif" font-size="12" fill="#333">98</text>
  <text x="640" y="474" font-family="Arial, sans-serif" font-size="12" fill="#FAAD14">98%</text>
  <text x="740" y="474" font-family="Arial, sans-serif" font-size="12" fill="#333">01-16</text>
  <text x="850" y="474" font-family="Arial, sans-serif" font-size="12" fill="#333">Lee QA</text>

  <!-- Data Row 5008 -->
  <rect x="20" y="488" width="970" height="40" fill="#FAFAFA" stroke="#E8E8E8"/>
  <text x="28" y="514" font-family="Arial, sans-serif" font-size="14" fill="#BFBFBF">::</text>
  <rect x="62" y="502" width="14" height="14" fill="none" stroke="#D9D9D9" rx="2"/>
  <text x="96" y="514" font-family="Arial, sans-serif" font-size="12" fill="#1677FF">></text>
  <text x="126" y="514" font-family="Arial, sans-serif" font-size="12" fill="#333">5,008</text>
  <text x="186" y="514" font-family="Arial, sans-serif" font-size="12" fill="#333">PRD-5008</text>
  <text x="306" y="514" font-family="Arial, sans-serif" font-size="12" fill="#333">Product L</text>
  <text x="480" y="514" font-family="Arial, sans-serif" font-size="12" fill="#333">200</text>
  <text x="560" y="514" font-family="Arial, sans-serif" font-size="12" fill="#333">205</text>
  <text x="640" y="514" font-family="Arial, sans-serif" font-size="12" fill="#52C41A">103%</text>
  <text x="740" y="514" font-family="Arial, sans-serif" font-size="12" fill="#333">01-16</text>
  <text x="850" y="514" font-family="Arial, sans-serif" font-size="12" fill="#333">Kim Prod</text>

  <!-- Data Row 5009 -->
  <rect x="20" y="528" width="970" height="40" fill="#FFFFFF" stroke="#E8E8E8"/>
  <text x="28" y="554" font-family="Arial, sans-serif" font-size="14" fill="#BFBFBF">::</text>
  <rect x="62" y="542" width="14" height="14" fill="none" stroke="#D9D9D9" rx="2"/>
  <text x="96" y="554" font-family="Arial, sans-serif" font-size="12" fill="#1677FF">></text>
  <text x="126" y="554" font-family="Arial, sans-serif" font-size="12" fill="#333">5,009</text>
  <text x="186" y="554" font-family="Arial, sans-serif" font-size="12" fill="#333">PRD-5009</text>
  <text x="306" y="554" font-family="Arial, sans-serif" font-size="12" fill="#333">Product M</text>
  <text x="480" y="554" font-family="Arial, sans-serif" font-size="12" fill="#333">85</text>
  <text x="560" y="554" font-family="Arial, sans-serif" font-size="12" fill="#333">80</text>
  <text x="640" y="554" font-family="Arial, sans-serif" font-size="12" fill="#FF4D4F">94%</text>
  <text x="740" y="554" font-family="Arial, sans-serif" font-size="12" fill="#333">01-17</text>
  <text x="850" y="554" font-family="Arial, sans-serif" font-size="12" fill="#333">Park Maint</text>

  <!-- Data Row 5010 -->
  <rect x="20" y="568" width="970" height="40" fill="#FAFAFA" stroke="#E8E8E8"/>
  <text x="28" y="594" font-family="Arial, sans-serif" font-size="14" fill="#BFBFBF">::</text>
  <rect x="62" y="582" width="14" height="14" fill="none" stroke="#D9D9D9" rx="2"/>
  <text x="96" y="594" font-family="Arial, sans-serif" font-size="12" fill="#1677FF">></text>
  <text x="126" y="594" font-family="Arial, sans-serif" font-size="12" fill="#333">5,010</text>
  <text x="186" y="594" font-family="Arial, sans-serif" font-size="12" fill="#333">PRD-5010</text>
  <text x="306" y="594" font-family="Arial, sans-serif" font-size="12" fill="#333">Product N</text>
  <text x="480" y="594" font-family="Arial, sans-serif" font-size="12" fill="#333">150</text>
  <text x="560" y="594" font-family="Arial, sans-serif" font-size="12" fill="#333">152</text>
  <text x="640" y="594" font-family="Arial, sans-serif" font-size="12" fill="#52C41A">101%</text>
  <text x="740" y="594" font-family="Arial, sans-serif" font-size="12" fill="#333">01-17</text>
  <text x="850" y="594" font-family="Arial, sans-serif" font-size="12" fill="#333">Jung Ops</text>

  <!-- Virtual Scrollbar -->
  <rect x="990" y="140" width="14" height="540" fill="#F0F0F0" rx="7"/>
  <!-- Scrollbar track -->
  <rect x="992" y="142" width="10" height="536" fill="#E8E8E8" rx="5"/>
  <!-- Scrollbar thumb - positioned at 50% -->
  <rect x="992" y="380" width="10" height="60" fill="#1677FF" rx="5"/>

  <!-- Scroll position labels on scrollbar -->
  <text x="988" y="155" font-family="Arial, sans-serif" font-size="8" fill="#999" text-anchor="end">1</text>
  <text x="988" y="410" font-family="Arial, sans-serif" font-size="8" fill="#1677FF" text-anchor="end">5K</text>
  <text x="988" y="670" font-family="Arial, sans-serif" font-size="8" fill="#999" text-anchor="end">10K</text>

  <!-- Virtual Scroll Info Bar -->
  <rect x="20" y="628" width="984" height="32" fill="#FFFBE6" stroke="#FFE58F" rx="0"/>
  <circle cx="40" cy="644" r="10" fill="#FAAD14"/>
  <text x="37" y="648" font-family="Arial, sans-serif" font-size="10" font-weight="bold" fill="#FFFFFF">i</text>
  <text x="60" y="649" font-family="Arial, sans-serif" font-size="12" fill="#AD6800">Current: 5,001 ~ 5,010 / Total: 10,000 records</text>

  <!-- Scroll Position Indicator -->
  <rect x="500" y="636" width="200" height="20" fill="#FFFFFF" stroke="#D9D9D9" rx="10"/>
  <rect x="500" y="636" width="100" height="20" fill="#1677FF" rx="10"/>
  <text x="600" y="650" font-family="Arial, sans-serif" font-size="10" fill="#FFFFFF" text-anchor="middle">50%</text>

  <!-- Pagination -->
  <rect x="20" y="680" width="984" height="40" fill="#FFFFFF" stroke="#D9D9D9"/>
  <text x="36" y="705" font-family="Arial, sans-serif" font-size="13" fill="#666">Total 10,000 items</text>

  <rect x="200" y="690" width="90" height="28" fill="#FFFFFF" stroke="#D9D9D9" rx="4"/>
  <text x="212" y="709" font-family="Arial, sans-serif" font-size="12" fill="#333">All / page</text>

  <!-- Virtual scroll mode indicator -->
  <rect x="580" y="690" width="140" height="28" fill="#E6F4FF" stroke="#91CAFF" rx="4"/>
  <text x="600" y="709" font-family="Arial, sans-serif" font-size="11" fill="#0958D9">Virtual Scroll Mode</text>

  <!-- Jump to row input -->
  <text x="740" y="708" font-family="Arial, sans-serif" font-size="11" fill="#666">Go to:</text>
  <rect x="780" y="690" width="70" height="28" fill="#FFFFFF" stroke="#D9D9D9" rx="4"/>
  <text x="792" y="709" font-family="Arial, sans-serif" font-size="12" fill="#333">5001</text>

  <rect x="856" y="690" width="60" height="28" fill="#1677FF" stroke="#1677FF" rx="4"/>
  <text x="874" y="709" font-family="Arial, sans-serif" font-size="12" fill="#FFFFFF">Jump</text>

  <!-- Footer Note -->
  <text x="20" y="752" font-family="Arial, sans-serif" font-size="10" fill="#999">TSK-06-20 DataTable Showcase - Virtual Scroll Mode (Rows 5,001-5,010 visible, 50% scrolled)</text>
</svg>
