<svg xmlns="http://www.w3.org/2000/svg" viewBox="0 0 1024 768">
  <!-- Background -->
  <rect width="1024" height="768" fill="#F5F5F5"/>

  <!-- Page Title Bar -->
  <rect x="20" y="20" width="984" height="50" fill="#FFFFFF" stroke="#D9D9D9" rx="4"/>
  <text x="36" y="52" font-family="Arial, sans-serif" font-size="18" font-weight="bold" fill="#333">DataTable Showcase</text>
  <text x="36" y="68" font-family="Arial, sans-serif" font-size="11" fill="#8C8C8C">12 features demo</text>

  <!-- Reset Button -->
  <rect x="890" y="32" width="100" height="28" fill="#FFFFFF" stroke="#D9D9D9" rx="4"/>
  <text x="908" y="51" font-family="Arial, sans-serif" font-size="12" fill="#333">Reset Settings</text>

  <!-- Feature Toggle Panel -->
  <rect x="20" y="80" width="984" height="90" fill="#FFFFFF" stroke="#D9D9D9" rx="4"/>
  <text x="36" y="100" font-family="Arial, sans-serif" font-size="12" font-weight="500" fill="#666">Feature Toggles</text>

  <!-- Toggle Row 1 -->
  <!-- Sorting Toggle -->
  <rect x="36" y="110" width="36" height="18" fill="#1677FF" rx="9"/>
  <circle cx="58" cy="119" r="7" fill="#FFFFFF"/>
  <text x="78" y="123" font-family="Arial, sans-serif" font-size="11" fill="#333">Sorting</text>

  <!-- Filtering Toggle -->
  <rect x="156" y="110" width="36" height="18" fill="#1677FF" rx="9"/>
  <circle cx="178" cy="119" r="7" fill="#FFFFFF"/>
  <text x="198" y="123" font-family="Arial, sans-serif" font-size="11" fill="#333">Filtering</text>

  <!-- Pagination Toggle -->
  <rect x="286" y="110" width="36" height="18" fill="#1677FF" rx="9"/>
  <circle cx="308" cy="119" r="7" fill="#FFFFFF"/>
  <text x="328" y="123" font-family="Arial, sans-serif" font-size="11" fill="#333">Pagination</text>

  <!-- Row Selection Toggle -->
  <rect x="426" y="110" width="36" height="18" fill="#1677FF" rx="9"/>
  <circle cx="448" cy="119" r="7" fill="#FFFFFF"/>
  <text x="468" y="123" font-family="Arial, sans-serif" font-size="11" fill="#333">Row Selection</text>

  <!-- Column Resize Toggle -->
  <rect x="586" y="110" width="36" height="18" fill="#1677FF" rx="9"/>
  <circle cx="608" cy="119" r="7" fill="#FFFFFF"/>
  <text x="628" y="123" font-family="Arial, sans-serif" font-size="11" fill="#333">Column Resize</text>

  <!-- Fixed Column Toggle -->
  <rect x="756" y="110" width="36" height="18" fill="#1677FF" rx="9"/>
  <circle cx="778" cy="119" r="7" fill="#FFFFFF"/>
  <text x="798" y="123" font-family="Arial, sans-serif" font-size="11" fill="#333">Fixed Column</text>

  <!-- Toggle Row 2 -->
  <!-- Expandable Toggle -->
  <rect x="36" y="140" width="36" height="18" fill="#1677FF" rx="9"/>
  <circle cx="58" cy="149" r="7" fill="#FFFFFF"/>
  <text x="78" y="153" font-family="Arial, sans-serif" font-size="11" fill="#333">Expandable</text>

  <!-- Inline Edit Toggle -->
  <rect x="156" y="140" width="36" height="18" fill="#1677FF" rx="9"/>
  <circle cx="178" cy="149" r="7" fill="#FFFFFF"/>
  <text x="198" y="153" font-family="Arial, sans-serif" font-size="11" fill="#333">Inline Edit</text>

  <!-- Row Drag Toggle -->
  <rect x="286" y="140" width="36" height="18" fill="#1677FF" rx="9"/>
  <circle cx="308" cy="149" r="7" fill="#FFFFFF"/>
  <text x="328" y="153" font-family="Arial, sans-serif" font-size="11" fill="#333">Row Drag</text>

  <!-- Virtual Scroll Toggle -->
  <rect x="426" y="140" width="36" height="18" fill="#1677FF" rx="9"/>
  <circle cx="448" cy="149" r="7" fill="#FFFFFF"/>
  <text x="468" y="153" font-family="Arial, sans-serif" font-size="11" fill="#333">Virtual Scroll</text>

  <!-- Group Header Toggle -->
  <rect x="586" y="140" width="36" height="18" fill="#1677FF" rx="9"/>
  <circle cx="608" cy="149" r="7" fill="#FFFFFF"/>
  <text x="628" y="153" font-family="Arial, sans-serif" font-size="11" fill="#333">Group Header</text>

  <!-- Cell Merge Toggle -->
  <rect x="756" y="140" width="36" height="18" fill="#1677FF" rx="9"/>
  <circle cx="778" cy="149" r="7" fill="#FFFFFF"/>
  <text x="798" y="153" font-family="Arial, sans-serif" font-size="11" fill="#333">Cell Merge</text>

  <!-- Data Table Container -->
  <rect x="20" y="180" width="984" height="540" fill="#FFFFFF" stroke="#D9D9D9" rx="4"/>

  <!-- Group Header Row -->
  <rect x="20" y="180" width="984" height="32" fill="#F0F5FF" stroke="#D9D9D9"/>

  <!-- Basic Info Group -->
  <rect x="20" y="180" width="450" height="32" fill="#F0F5FF" stroke="#ADC6FF"/>
  <text x="220" y="201" font-family="Arial, sans-serif" font-size="12" font-weight="600" fill="#1D39C4" text-anchor="middle">Basic Info</text>

  <!-- Performance Group -->
  <rect x="470" y="180" width="534" height="32" fill="#F6FFED" stroke="#B7EB8F"/>
  <text x="737" y="201" font-family="Arial, sans-serif" font-size="12" font-weight="600" fill="#389E0D" text-anchor="middle">Performance</text>

  <!-- Column Header Row -->
  <rect x="20" y="212" width="984" height="36" fill="#FAFAFA" stroke="#D9D9D9"/>

  <!-- Drag Handle Column Header -->
  <rect x="20" y="212" width="30" height="36" fill="#FAFAFA" stroke="#E8E8E8"/>

  <!-- Checkbox Column Header -->
  <rect x="50" y="212" width="36" height="36" fill="#FAFAFA" stroke="#E8E8E8"/>
  <rect x="62" y="224" width="14" height="14" fill="none" stroke="#D9D9D9" rx="2"/>

  <!-- Expand Column Header -->
  <rect x="86" y="212" width="30" height="36" fill="#FAFAFA" stroke="#E8E8E8"/>

  <!-- ID Column Header -->
  <rect x="116" y="212" width="60" height="36" fill="#FAFAFA" stroke="#E8E8E8"/>
  <text x="126" y="235" font-family="Arial, sans-serif" font-size="12" font-weight="500" fill="#333">ID</text>
  <text x="162" y="235" font-family="Arial, sans-serif" font-size="9" fill="#1677FF">^v</text>

  <!-- Product Code Column Header -->
  <rect x="176" y="212" width="120" height="36" fill="#FAFAFA" stroke="#E8E8E8"/>
  <text x="186" y="235" font-family="Arial, sans-serif" font-size="12" font-weight="500" fill="#333">Product Code</text>
  <text x="282" y="235" font-family="Arial, sans-serif" font-size="9" fill="#BFBFBF">^v</text>

  <!-- Product Name Column Header -->
  <rect x="296" y="212" width="174" height="36" fill="#FAFAFA" stroke="#E8E8E8"/>
  <text x="306" y="235" font-family="Arial, sans-serif" font-size="12" font-weight="500" fill="#333">Product Name</text>
  <text x="456" y="235" font-family="Arial, sans-serif" font-size="9" fill="#BFBFBF">^v</text>

  <!-- Target Column Header -->
  <rect x="470" y="212" width="80" height="36" fill="#FAFAFA" stroke="#E8E8E8"/>
  <text x="480" y="235" font-family="Arial, sans-serif" font-size="12" font-weight="500" fill="#333">Target</text>
  <text x="536" y="235" font-family="Arial, sans-serif" font-size="9" fill="#BFBFBF">^v</text>

  <!-- Actual Column Header -->
  <rect x="550" y="212" width="80" height="36" fill="#FAFAFA" stroke="#E8E8E8"/>
  <text x="560" y="235" font-family="Arial, sans-serif" font-size="12" font-weight="500" fill="#333">Actual</text>
  <text x="616" y="235" font-family="Arial, sans-serif" font-size="9" fill="#BFBFBF">^v</text>

  <!-- Achievement Rate Column Header -->
  <rect x="630" y="212" width="100" height="36" fill="#FAFAFA" stroke="#E8E8E8"/>
  <text x="640" y="235" font-family="Arial, sans-serif" font-size="12" font-weight="500" fill="#333">Rate</text>
  <text x="716" y="235" font-family="Arial, sans-serif" font-size="9" fill="#BFBFBF">^v</text>

  <!-- Production Date Column Header -->
  <rect x="730" y="212" width="110" height="36" fill="#FAFAFA" stroke="#E8E8E8"/>
  <text x="740" y="235" font-family="Arial, sans-serif" font-size="12" font-weight="500" fill="#333">Prod. Date</text>
  <text x="826" y="235" font-family="Arial, sans-serif" font-size="9" fill="#BFBFBF">^v</text>

  <!-- Manager Column Header -->
  <rect x="840" y="212" width="164" height="36" fill="#FAFAFA" stroke="#E8E8E8"/>
  <text x="850" y="235" font-family="Arial, sans-serif" font-size="12" font-weight="500" fill="#333">Manager</text>
  <text x="990" y="235" font-family="Arial, sans-serif" font-size="9" fill="#BFBFBF">^v</text>

  <!-- Data Row 1 -->
  <rect x="20" y="248" width="984" height="40" fill="#FFFFFF" stroke="#E8E8E8"/>
  <text x="28" y="274" font-family="Arial, sans-serif" font-size="14" fill="#BFBFBF">::</text>
  <rect x="62" y="262" width="14" height="14" fill="none" stroke="#D9D9D9" rx="2"/>
  <text x="96" y="274" font-family="Arial, sans-serif" font-size="12" fill="#1677FF">></text>
  <text x="126" y="274" font-family="Arial, sans-serif" font-size="12" fill="#333">1</text>
  <text x="186" y="274" font-family="Arial, sans-serif" font-size="12" fill="#333">PRD-001</text>
  <text x="306" y="274" font-family="Arial, sans-serif" font-size="12" fill="#333">Product A</text>
  <text x="480" y="274" font-family="Arial, sans-serif" font-size="12" fill="#333">100</text>
  <text x="560" y="274" font-family="Arial, sans-serif" font-size="12" fill="#333">95</text>
  <text x="640" y="274" font-family="Arial, sans-serif" font-size="12" fill="#FAAD14">95%</text>
  <text x="740" y="274" font-family="Arial, sans-serif" font-size="12" fill="#333">01-20</text>
  <text x="850" y="274" font-family="Arial, sans-serif" font-size="12" fill="#333">Kim Prod</text>

  <!-- Data Row 2 -->
  <rect x="20" y="288" width="984" height="40" fill="#FAFAFA" stroke="#E8E8E8"/>
  <text x="28" y="314" font-family="Arial, sans-serif" font-size="14" fill="#BFBFBF">::</text>
  <rect x="62" y="302" width="14" height="14" fill="none" stroke="#D9D9D9" rx="2"/>
  <text x="96" y="314" font-family="Arial, sans-serif" font-size="12" fill="#1677FF">></text>
  <text x="126" y="314" font-family="Arial, sans-serif" font-size="12" fill="#333">2</text>
  <text x="186" y="314" font-family="Arial, sans-serif" font-size="12" fill="#333">PRD-002</text>
  <text x="306" y="314" font-family="Arial, sans-serif" font-size="12" fill="#333">Product B</text>
  <text x="480" y="314" font-family="Arial, sans-serif" font-size="12" fill="#333">200</text>
  <text x="560" y="314" font-family="Arial, sans-serif" font-size="12" fill="#333">210</text>
  <text x="640" y="314" font-family="Arial, sans-serif" font-size="12" fill="#52C41A">105%</text>
  <text x="740" y="314" font-family="Arial, sans-serif" font-size="12" fill="#333">01-20</text>
  <text x="850" y="314" font-family="Arial, sans-serif" font-size="12" fill="#333">Lee QA</text>

  <!-- Data Row 3 -->
  <rect x="20" y="328" width="984" height="40" fill="#FFFFFF" stroke="#E8E8E8"/>
  <text x="28" y="354" font-family="Arial, sans-serif" font-size="14" fill="#BFBFBF">::</text>
  <rect x="62" y="342" width="14" height="14" fill="none" stroke="#D9D9D9" rx="2"/>
  <text x="96" y="354" font-family="Arial, sans-serif" font-size="12" fill="#1677FF">></text>
  <text x="126" y="354" font-family="Arial, sans-serif" font-size="12" fill="#333">3</text>
  <text x="186" y="354" font-family="Arial, sans-serif" font-size="12" fill="#333">PRD-003</text>
  <text x="306" y="354" font-family="Arial, sans-serif" font-size="12" fill="#333">Product C</text>
  <text x="480" y="354" font-family="Arial, sans-serif" font-size="12" fill="#333">150</text>
  <text x="560" y="354" font-family="Arial, sans-serif" font-size="12" fill="#333">148</text>
  <text x="640" y="354" font-family="Arial, sans-serif" font-size="12" fill="#52C41A">99%</text>
  <text x="740" y="354" font-family="Arial, sans-serif" font-size="12" fill="#333">01-20</text>
  <text x="850" y="354" font-family="Arial, sans-serif" font-size="12" fill="#333">Park Maint</text>

  <!-- Data Row 4 - Selected -->
  <rect x="20" y="368" width="984" height="40" fill="#E6F4FF" stroke="#91CAFF"/>
  <text x="28" y="394" font-family="Arial, sans-serif" font-size="14" fill="#BFBFBF">::</text>
  <rect x="62" y="382" width="14" height="14" fill="#1677FF" stroke="#1677FF" rx="2"/>
  <polyline points="65,389 68,392 73,386" fill="none" stroke="#FFFFFF" stroke-width="2"/>
  <text x="96" y="394" font-family="Arial, sans-serif" font-size="12" fill="#1677FF">></text>
  <text x="126" y="394" font-family="Arial, sans-serif" font-size="12" fill="#333">4</text>
  <text x="186" y="394" font-family="Arial, sans-serif" font-size="12" fill="#333">PRD-004</text>
  <text x="306" y="394" font-family="Arial, sans-serif" font-size="12" fill="#333">Product A</text>
  <text x="480" y="394" font-family="Arial, sans-serif" font-size="12" fill="#333">100</text>
  <text x="560" y="394" font-family="Arial, sans-serif" font-size="12" fill="#333">102</text>
  <text x="640" y="394" font-family="Arial, sans-serif" font-size="12" fill="#52C41A">102%</text>
  <text x="740" y="394" font-family="Arial, sans-serif" font-size="12" fill="#333">01-21</text>
  <text x="850" y="394" font-family="Arial, sans-serif" font-size="12" fill="#333">Kim Prod</text>

  <!-- Data Row 5 -->
  <rect x="20" y="408" width="984" height="40" fill="#FFFFFF" stroke="#E8E8E8"/>
  <text x="28" y="434" font-family="Arial, sans-serif" font-size="14" fill="#BFBFBF">::</text>
  <rect x="62" y="422" width="14" height="14" fill="none" stroke="#D9D9D9" rx="2"/>
  <text x="96" y="434" font-family="Arial, sans-serif" font-size="12" fill="#1677FF">></text>
  <text x="126" y="434" font-family="Arial, sans-serif" font-size="12" fill="#333">5</text>
  <text x="186" y="434" font-family="Arial, sans-serif" font-size="12" fill="#333">PRD-005</text>
  <text x="306" y="434" font-family="Arial, sans-serif" font-size="12" fill="#333">Product D</text>
  <text x="480" y="434" font-family="Arial, sans-serif" font-size="12" fill="#333">80</text>
  <text x="560" y="434" font-family="Arial, sans-serif" font-size="12" fill="#333">75</text>
  <text x="640" y="434" font-family="Arial, sans-serif" font-size="12" fill="#FF4D4F">94%</text>
  <text x="740" y="434" font-family="Arial, sans-serif" font-size="12" fill="#333">01-21</text>
  <text x="850" y="434" font-family="Arial, sans-serif" font-size="12" fill="#333">Jung Ops</text>

  <!-- Data Row 6 -->
  <rect x="20" y="448" width="984" height="40" fill="#FAFAFA" stroke="#E8E8E8"/>
  <text x="28" y="474" font-family="Arial, sans-serif" font-size="14" fill="#BFBFBF">::</text>
  <rect x="62" y="462" width="14" height="14" fill="none" stroke="#D9D9D9" rx="2"/>
  <text x="96" y="474" font-family="Arial, sans-serif" font-size="12" fill="#1677FF">></text>
  <text x="126" y="474" font-family="Arial, sans-serif" font-size="12" fill="#333">6</text>
  <text x="186" y="474" font-family="Arial, sans-serif" font-size="12" fill="#333">PRD-006</text>
  <text x="306" y="474" font-family="Arial, sans-serif" font-size="12" fill="#333">Product E</text>
  <text x="480" y="474" font-family="Arial, sans-serif" font-size="12" fill="#333">120</text>
  <text x="560" y="474" font-family="Arial, sans-serif" font-size="12" fill="#333">122</text>
  <text x="640" y="474" font-family="Arial, sans-serif" font-size="12" fill="#52C41A">102%</text>
  <text x="740" y="474" font-family="Arial, sans-serif" font-size="12" fill="#333">01-22</text>
  <text x="850" y="474" font-family="Arial, sans-serif" font-size="12" fill="#333">Choi QA</text>

  <!-- Data Row 7 -->
  <rect x="20" y="488" width="984" height="40" fill="#FFFFFF" stroke="#E8E8E8"/>
  <text x="28" y="514" font-family="Arial, sans-serif" font-size="14" fill="#BFBFBF">::</text>
  <rect x="62" y="502" width="14" height="14" fill="none" stroke="#D9D9D9" rx="2"/>
  <text x="96" y="514" font-family="Arial, sans-serif" font-size="12" fill="#1677FF">></text>
  <text x="126" y="514" font-family="Arial, sans-serif" font-size="12" fill="#333">7</text>
  <text x="186" y="514" font-family="Arial, sans-serif" font-size="12" fill="#333">PRD-007</text>
  <text x="306" y="514" font-family="Arial, sans-serif" font-size="12" fill="#333">Product F</text>
  <text x="480" y="514" font-family="Arial, sans-serif" font-size="12" fill="#333">90</text>
  <text x="560" y="514" font-family="Arial, sans-serif" font-size="12" fill="#333">88</text>
  <text x="640" y="514" font-family="Arial, sans-serif" font-size="12" fill="#FAAD14">98%</text>
  <text x="740" y="514" font-family="Arial, sans-serif" font-size="12" fill="#333">01-22</text>
  <text x="850" y="514" font-family="Arial, sans-serif" font-size="12" fill="#333">Kang Prod</text>

  <!-- Data Row 8 -->
  <rect x="20" y="528" width="984" height="40" fill="#FAFAFA" stroke="#E8E8E8"/>
  <text x="28" y="554" font-family="Arial, sans-serif" font-size="14" fill="#BFBFBF">::</text>
  <rect x="62" y="542" width="14" height="14" fill="none" stroke="#D9D9D9" rx="2"/>
  <text x="96" y="554" font-family="Arial, sans-serif" font-size="12" fill="#1677FF">></text>
  <text x="126" y="554" font-family="Arial, sans-serif" font-size="12" fill="#333">8</text>
  <text x="186" y="554" font-family="Arial, sans-serif" font-size="12" fill="#333">PRD-008</text>
  <text x="306" y="554" font-family="Arial, sans-serif" font-size="12" fill="#333">Product G</text>
  <text x="480" y="554" font-family="Arial, sans-serif" font-size="12" fill="#333">180</text>
  <text x="560" y="554" font-family="Arial, sans-serif" font-size="12" fill="#333">185</text>
  <text x="640" y="554" font-family="Arial, sans-serif" font-size="12" fill="#52C41A">103%</text>
  <text x="740" y="554" font-family="Arial, sans-serif" font-size="12" fill="#333">01-23</text>
  <text x="850" y="554" font-family="Arial, sans-serif" font-size="12" fill="#333">Lee QA</text>

  <!-- Data Row 9 -->
  <rect x="20" y="568" width="984" height="40" fill="#FFFFFF" stroke="#E8E8E8"/>
  <text x="28" y="594" font-family="Arial, sans-serif" font-size="14" fill="#BFBFBF">::</text>
  <rect x="62" y="582" width="14" height="14" fill="none" stroke="#D9D9D9" rx="2"/>
  <text x="96" y="594" font-family="Arial, sans-serif" font-size="12" fill="#1677FF">></text>
  <text x="126" y="594" font-family="Arial, sans-serif" font-size="12" fill="#333">9</text>
  <text x="186" y="594" font-family="Arial, sans-serif" font-size="12" fill="#333">PRD-009</text>
  <text x="306" y="594" font-family="Arial, sans-serif" font-size="12" fill="#333">Product H</text>
  <text x="480" y="594" font-family="Arial, sans-serif" font-size="12" fill="#333">110</text>
  <text x="560" y="594" font-family="Arial, sans-serif" font-size="12" fill="#333">108</text>
  <text x="640" y="594" font-family="Arial, sans-serif" font-size="12" fill="#FAAD14">98%</text>
  <text x="740" y="594" font-family="Arial, sans-serif" font-size="12" fill="#333">01-23</text>
  <text x="850" y="594" font-family="Arial, sans-serif" font-size="12" fill="#333">Park Maint</text>

  <!-- Data Row 10 -->
  <rect x="20" y="608" width="984" height="40" fill="#FAFAFA" stroke="#E8E8E8"/>
  <text x="28" y="634" font-family="Arial, sans-serif" font-size="14" fill="#BFBFBF">::</text>
  <rect x="62" y="622" width="14" height="14" fill="none" stroke="#D9D9D9" rx="2"/>
  <text x="96" y="634" font-family="Arial, sans-serif" font-size="12" fill="#1677FF">></text>
  <text x="126" y="634" font-family="Arial, sans-serif" font-size="12" fill="#333">10</text>
  <text x="186" y="634" font-family="Arial, sans-serif" font-size="12" fill="#333">PRD-010</text>
  <text x="306" y="634" font-family="Arial, sans-serif" font-size="12" fill="#333">Product I</text>
  <text x="480" y="634" font-family="Arial, sans-serif" font-size="12" fill="#333">140</text>
  <text x="560" y="634" font-family="Arial, sans-serif" font-size="12" fill="#333">145</text>
  <text x="640" y="634" font-family="Arial, sans-serif" font-size="12" fill="#52C41A">104%</text>
  <text x="740" y="634" font-family="Arial, sans-serif" font-size="12" fill="#333">01-23</text>
  <text x="850" y="634" font-family="Arial, sans-serif" font-size="12" fill="#333">Jung Ops</text>

  <!-- Pagination -->
  <rect x="20" y="668" width="984" height="52" fill="#FFFFFF" stroke="#D9D9D9"/>

  <!-- Total Count -->
  <text x="36" y="700" font-family="Arial, sans-serif" font-size="13" fill="#666">Total 10,000 items</text>

  <!-- Page Size Selector -->
  <rect x="200" y="684" width="90" height="28" fill="#FFFFFF" stroke="#D9D9D9" rx="4"/>
  <text x="212" y="703" font-family="Arial, sans-serif" font-size="12" fill="#333">20 / page</text>
  <text x="272" y="703" font-family="Arial, sans-serif" font-size="10" fill="#666">v</text>

  <!-- Page Numbers -->
  <rect x="610" y="684" width="28" height="28" fill="#FFFFFF" stroke="#D9D9D9" rx="4"/>
  <text x="620" y="703" font-family="Arial, sans-serif" font-size="12" fill="#666">&lt;</text>

  <rect x="644" y="684" width="28" height="28" fill="#1677FF" stroke="#1677FF" rx="4"/>
  <text x="654" y="703" font-family="Arial, sans-serif" font-size="12" fill="#FFFFFF">1</text>

  <rect x="678" y="684" width="28" height="28" fill="#FFFFFF" stroke="#D9D9D9" rx="4"/>
  <text x="688" y="703" font-family="Arial, sans-serif" font-size="12" fill="#333">2</text>

  <rect x="712" y="684" width="28" height="28" fill="#FFFFFF" stroke="#D9D9D9" rx="4"/>
  <text x="722" y="703" font-family="Arial, sans-serif" font-size="12" fill="#333">3</text>

  <text x="752" y="703" font-family="Arial, sans-serif" font-size="12" fill="#333">...</text>

  <rect x="780" y="684" width="42" height="28" fill="#FFFFFF" stroke="#D9D9D9" rx="4"/>
  <text x="790" y="703" font-family="Arial, sans-serif" font-size="12" fill="#333">500</text>

  <rect x="828" y="684" width="28" height="28" fill="#FFFFFF" stroke="#D9D9D9" rx="4"/>
  <text x="838" y="703" font-family="Arial, sans-serif" font-size="12" fill="#666">&gt;</text>

  <!-- Scrollbar (Virtual Scroll Indicator) -->
  <rect x="988" y="248" width="12" height="400" fill="#F0F0F0" rx="6"/>
  <rect x="988" y="248" width="12" height="80" fill="#BFBFBF" rx="6"/>

  <!-- Footer Note -->
  <text x="20" y="752" font-family="Arial, sans-serif" font-size="10" fill="#999">TSK-06-20 DataTable Showcase - All Features Enabled (10,000 records)</text>
</svg>
