<?xml version="1.0" encoding="UTF-8"?>
<svg width="1200" height="800" viewBox="0 0 1200 800" xmlns="http://www.w3.org/2000/svg">
  <title>SCR-03: List Screen Loading State</title>
  <desc>MES Portal - List Template Loading State Wireframe</desc>

  <!-- Background -->
  <rect width="1200" height="800" fill="#f5f5f5"/>

  <!-- ==================== SEARCH AREA (Card) - Disabled State ==================== -->
  <g id="search-card" opacity="0.7">
    <!-- Card Background -->
    <rect x="24" y="24" width="1152" height="160" rx="8" fill="#ffffff" stroke="#d9d9d9" stroke-width="1"/>

    <!-- Search Fields Row 1 -->
    <g id="search-fields">
      <!-- Field 1 -->
      <g id="field-1">
        <text x="48" y="58" font-family="Arial, sans-serif" font-size="14" fill="#000000a6">Search Field 1</text>
        <rect x="48" y="68" width="200" height="32" rx="6" fill="#f5f5f5" stroke="#d9d9d9" stroke-width="1"/>
        <text x="60" y="89" font-family="Arial, sans-serif" font-size="14" fill="#bfbfbf">Enter value...</text>
      </g>

      <!-- Field 2 -->
      <g id="field-2">
        <text x="280" y="58" font-family="Arial, sans-serif" font-size="14" fill="#000000a6">Search Field 2</text>
        <rect x="280" y="68" width="200" height="32" rx="6" fill="#f5f5f5" stroke="#d9d9d9" stroke-width="1"/>
        <text x="292" y="89" font-family="Arial, sans-serif" font-size="14" fill="#bfbfbf">Select...</text>
        <path d="M464 82 L470 88 L476 82" stroke="#bfbfbf" stroke-width="1.5" fill="none"/>
      </g>

      <!-- Field 3 -->
      <g id="field-3">
        <text x="512" y="58" font-family="Arial, sans-serif" font-size="14" fill="#000000a6">Date Range</text>
        <rect x="512" y="68" width="280" height="32" rx="6" fill="#f5f5f5" stroke="#d9d9d9" stroke-width="1"/>
        <text x="524" y="89" font-family="Arial, sans-serif" font-size="14" fill="#000000a6">2026-01-01</text>
        <text x="636" y="89" font-family="Arial, sans-serif" font-size="14" fill="#bfbfbf">~</text>
        <text x="668" y="89" font-family="Arial, sans-serif" font-size="14" fill="#000000a6">2026-01-21</text>
      </g>

      <!-- More Button (Disabled) -->
      <g id="more-button" opacity="0.5">
        <rect x="824" y="68" width="80" height="32" rx="6" fill="#ffffff" stroke="none"/>
        <text x="838" y="89" font-family="Arial, sans-serif" font-size="14" fill="#1677ff">More</text>
        <path d="M886 82 L892 88 L898 82" stroke="#1677ff" stroke-width="1.5" fill="none"/>
      </g>
    </g>

    <!-- Buttons Row -->
    <g id="search-buttons">
      <!-- Reset Button (Disabled) -->
      <rect x="952" y="132" width="80" height="32" rx="6" fill="#f5f5f5" stroke="#d9d9d9" stroke-width="1"/>
      <text x="975" y="153" font-family="Arial, sans-serif" font-size="14" fill="#00000040">Reset</text>

      <!-- Search Button (Loading) -->
      <rect x="1044" y="132" width="120" height="32" rx="6" fill="#1677ff" stroke="none" opacity="0.8"/>
      <!-- Loading Spinner -->
      <g transform="translate(1064, 148)">
        <circle cx="0" cy="0" r="6" fill="none" stroke="#ffffff" stroke-width="2" stroke-dasharray="25" stroke-dashoffset="10">
          <animateTransform attributeName="transform" type="rotate" from="0" to="360" dur="1s" repeatCount="indefinite"/>
        </circle>
      </g>
      <text x="1082" y="153" font-family="Arial, sans-serif" font-size="14" fill="#ffffff">Searching...</text>
    </g>
  </g>

  <!-- ==================== ACTION BAR ==================== -->
  <g id="action-bar" opacity="0.5">
    <rect x="24" y="200" width="1152" height="48" rx="0" fill="transparent"/>

    <!-- Left: Action Buttons (Disabled) -->
    <g id="action-buttons-left">
      <rect x="24" y="208" width="80" height="32" rx="6" fill="#f5f5f5" stroke="#d9d9d9" stroke-width="1"/>
      <text x="38" y="229" font-family="Arial, sans-serif" font-size="14" fill="#00000040">+ New</text>

      <rect x="116" y="208" width="80" height="32" rx="6" fill="#f5f5f5" stroke="#d9d9d9" stroke-width="1"/>
      <text x="130" y="229" font-family="Arial, sans-serif" font-size="14" fill="#00000040">Delete</text>
    </g>

    <!-- Right: Total Count -->
    <text x="1100" y="229" font-family="Arial, sans-serif" font-size="14" fill="#000000a6" text-anchor="end">Total: -- items</text>
  </g>

  <!-- ==================== DATA TABLE with Loading Overlay ==================== -->
  <g id="data-table">
    <!-- Table Container -->
    <rect x="24" y="260" width="1152" height="460" rx="8" fill="#ffffff" stroke="#d9d9d9" stroke-width="1"/>

    <!-- Table Header -->
    <g id="table-header">
      <rect x="24" y="260" width="1152" height="48" rx="8" fill="#fafafa"/>
      <rect x="24" y="300" width="1152" height="8" fill="#ffffff"/>
      <line x1="24" y1="308" x2="1176" y2="308" stroke="#f0f0f0" stroke-width="1"/>

      <!-- Checkbox Column -->
      <rect x="48" y="276" width="16" height="16" rx="2" fill="#ffffff" stroke="#d9d9d9" stroke-width="1"/>

      <!-- Column Headers -->
      <text x="100" y="289" font-family="Arial, sans-serif" font-size="14" font-weight="500" fill="#000000d9">Column 1</text>
      <path d="M162 282 L168 276 L174 282 M162 294 L168 300 L174 294" stroke="#bfbfbf" stroke-width="1" fill="none"/>

      <text x="280" y="289" font-family="Arial, sans-serif" font-size="14" font-weight="500" fill="#000000d9">Column 2</text>
      <path d="M342 282 L348 276 L354 282 M342 294 L348 300 L354 294" stroke="#bfbfbf" stroke-width="1" fill="none"/>

      <text x="460" y="289" font-family="Arial, sans-serif" font-size="14" font-weight="500" fill="#000000d9">Column 3</text>
      <path d="M522 282 L528 276 L534 282 M522 294 L528 300 L534 294" stroke="#bfbfbf" stroke-width="1" fill="none"/>

      <text x="640" y="289" font-family="Arial, sans-serif" font-size="14" font-weight="500" fill="#000000d9">Column 4</text>
      <path d="M702 282 L708 276 L714 282 M702 294 L708 300 L714 294" stroke="#bfbfbf" stroke-width="1" fill="none"/>

      <text x="820" y="289" font-family="Arial, sans-serif" font-size="14" font-weight="500" fill="#000000d9">Status</text>
      <path d="M866 282 L872 276 L878 282 M866 294 L872 300 L878 294" stroke="#bfbfbf" stroke-width="1" fill="none"/>

      <text x="1000" y="289" font-family="Arial, sans-serif" font-size="14" font-weight="500" fill="#000000d9">Actions</text>
    </g>

    <!-- Loading Overlay -->
    <g id="loading-overlay">
      <!-- Semi-transparent background -->
      <rect x="25" y="309" width="1150" height="350" fill="#ffffff" opacity="0.9"/>

      <!-- Loading Spinner Container -->
      <g transform="translate(600, 484)">
        <!-- Outer circle -->
        <circle cx="0" cy="0" r="24" fill="none" stroke="#f0f0f0" stroke-width="4"/>
        <!-- Spinning arc -->
        <circle cx="0" cy="0" r="24" fill="none" stroke="#1677ff" stroke-width="4" stroke-linecap="round" stroke-dasharray="100" stroke-dashoffset="60">
          <animateTransform attributeName="transform" type="rotate" from="0" to="360" dur="1s" repeatCount="indefinite"/>
        </circle>
      </g>

      <!-- Loading Text -->
      <text x="600" y="530" font-family="Arial, sans-serif" font-size="14" fill="#000000a6" text-anchor="middle">Loading data...</text>
    </g>

    <!-- Pagination (Disabled) -->
    <g id="pagination" opacity="0.5">
      <rect x="24" y="660" width="1152" height="60" fill="#ffffff"/>

      <!-- Page Size Selector -->
      <rect x="1040" y="680" width="100" height="28" rx="4" fill="#f5f5f5" stroke="#d9d9d9" stroke-width="1"/>
      <text x="1055" y="699" font-family="Arial, sans-serif" font-size="13" fill="#00000040">10 / page</text>
      <path d="M1120 692 L1126 698 L1132 692" stroke="#bfbfbf" stroke-width="1.5" fill="none"/>

      <!-- Page Numbers -->
      <g id="page-numbers" transform="translate(500, 680)">
        <rect x="0" y="0" width="28" height="28" rx="4" fill="#f5f5f5" stroke="#d9d9d9" stroke-width="1"/>
        <path d="M16 8 L10 14 L16 20" stroke="#bfbfbf" stroke-width="1.5" fill="none"/>

        <rect x="36" y="0" width="28" height="28" rx="4" fill="#f5f5f5" stroke="#d9d9d9" stroke-width="1"/>
        <text x="46" y="19" font-family="Arial, sans-serif" font-size="14" fill="#00000040">1</text>

        <rect x="72" y="0" width="28" height="28" rx="4" fill="#f5f5f5" stroke="#d9d9d9" stroke-width="1"/>
        <text x="82" y="19" font-family="Arial, sans-serif" font-size="14" fill="#00000040">2</text>

        <rect x="108" y="0" width="28" height="28" rx="4" fill="#f5f5f5" stroke="#d9d9d9" stroke-width="1"/>
        <text x="118" y="19" font-family="Arial, sans-serif" font-size="14" fill="#00000040">3</text>

        <text x="152" y="19" font-family="Arial, sans-serif" font-size="14" fill="#00000040">...</text>

        <rect x="180" y="0" width="32" height="28" rx="4" fill="#f5f5f5" stroke="#d9d9d9" stroke-width="1"/>
        <text x="190" y="19" font-family="Arial, sans-serif" font-size="14" fill="#00000040">-</text>

        <rect x="220" y="0" width="28" height="28" rx="4" fill="#f5f5f5" stroke="#d9d9d9" stroke-width="1"/>
        <path d="M230 8 L236 14 L230 20" stroke="#bfbfbf" stroke-width="1.5" fill="none"/>
      </g>
    </g>
  </g>

  <!-- Legend -->
  <g id="legend" transform="translate(24, 750)">
    <text x="0" y="0" font-family="Arial, sans-serif" font-size="11" fill="#8c8c8c">SCR-03: List Screen - Loading State | Search in progress with spinner overlay</text>
  </g>
</svg>
