<?xml version="1.0" encoding="UTF-8"?>
<svg width="1200" height="900" viewBox="0 0 1200 900" xmlns="http://www.w3.org/2000/svg">
  <title>SCR-02: List Screen Search Expanded State</title>
  <desc>MES Portal - List Template with Expanded Search Conditions Wireframe</desc>

  <!-- Background -->
  <rect width="1200" height="900" fill="#f5f5f5"/>

  <!-- ==================== SEARCH AREA (Card) - EXPANDED ==================== -->
  <g id="search-card-expanded">
    <!-- Card Background (taller) -->
    <rect x="24" y="24" width="1152" height="240" rx="8" fill="#ffffff" stroke="#d9d9d9" stroke-width="1"/>

    <!-- Search Fields Row 1 -->
    <g id="search-fields-row1">
      <!-- Field 1: Text Input -->
      <g id="field-1">
        <text x="48" y="58" font-family="Arial, sans-serif" font-size="14" fill="#000000d9">Search Field 1</text>
        <rect x="48" y="68" width="200" height="32" rx="6" fill="#ffffff" stroke="#d9d9d9" stroke-width="1"/>
        <text x="60" y="89" font-family="Arial, sans-serif" font-size="14" fill="#bfbfbf">Enter value...</text>
      </g>

      <!-- Field 2: Select -->
      <g id="field-2">
        <text x="280" y="58" font-family="Arial, sans-serif" font-size="14" fill="#000000d9">Search Field 2</text>
        <rect x="280" y="68" width="200" height="32" rx="6" fill="#ffffff" stroke="#d9d9d9" stroke-width="1"/>
        <text x="292" y="89" font-family="Arial, sans-serif" font-size="14" fill="#bfbfbf">Select...</text>
        <path d="M464 82 L470 88 L476 82" stroke="#bfbfbf" stroke-width="1.5" fill="none"/>
      </g>

      <!-- Field 3: Date Range -->
      <g id="field-3">
        <text x="512" y="58" font-family="Arial, sans-serif" font-size="14" fill="#000000d9">Date Range</text>
        <rect x="512" y="68" width="280" height="32" rx="6" fill="#ffffff" stroke="#d9d9d9" stroke-width="1"/>
        <text x="524" y="89" font-family="Arial, sans-serif" font-size="14" fill="#000000d9">2026-01-01</text>
        <text x="636" y="89" font-family="Arial, sans-serif" font-size="14" fill="#bfbfbf">~</text>
        <text x="668" y="89" font-family="Arial, sans-serif" font-size="14" fill="#000000d9">2026-01-21</text>
        <rect x="756" y="76" width="16" height="16" rx="2" fill="none" stroke="#bfbfbf" stroke-width="1"/>
        <line x1="760" y1="74" x2="760" y2="78" stroke="#bfbfbf" stroke-width="1"/>
        <line x1="768" y1="74" x2="768" y2="78" stroke="#bfbfbf" stroke-width="1"/>
        <line x1="756" y1="82" x2="772" y2="82" stroke="#bfbfbf" stroke-width="1"/>
      </g>

      <!-- Collapse Button (Up Arrow) -->
      <g id="collapse-button">
        <rect x="824" y="68" width="80" height="32" rx="6" fill="#ffffff" stroke="none"/>
        <text x="838" y="89" font-family="Arial, sans-serif" font-size="14" fill="#1677ff">Less</text>
        <path d="M886 88 L892 82 L898 88" stroke="#1677ff" stroke-width="1.5" fill="none"/>
      </g>
    </g>

    <!-- Search Fields Row 2 (Expanded) -->
    <g id="search-fields-row2">
      <!-- Field 4 -->
      <g id="field-4">
        <text x="48" y="128" font-family="Arial, sans-serif" font-size="14" fill="#000000d9">Search Field 4</text>
        <rect x="48" y="138" width="200" height="32" rx="6" fill="#ffffff" stroke="#d9d9d9" stroke-width="1"/>
        <text x="60" y="159" font-family="Arial, sans-serif" font-size="14" fill="#bfbfbf">Enter value...</text>
      </g>

      <!-- Field 5: Multi Select -->
      <g id="field-5">
        <text x="280" y="128" font-family="Arial, sans-serif" font-size="14" fill="#000000d9">Search Field 5</text>
        <rect x="280" y="138" width="200" height="32" rx="6" fill="#ffffff" stroke="#d9d9d9" stroke-width="1"/>
        <text x="292" y="159" font-family="Arial, sans-serif" font-size="14" fill="#bfbfbf">Multiple Select...</text>
        <path d="M464 152 L470 158 L476 152" stroke="#bfbfbf" stroke-width="1.5" fill="none"/>
      </g>

      <!-- Field 6: Checkbox Group -->
      <g id="field-6">
        <text x="512" y="128" font-family="Arial, sans-serif" font-size="14" fill="#000000d9">Search Field 6</text>
        <rect x="512" y="138" width="200" height="32" rx="6" fill="#ffffff" stroke="#d9d9d9" stroke-width="1"/>
        <text x="524" y="159" font-family="Arial, sans-serif" font-size="14" fill="#bfbfbf">Select option...</text>
        <path d="M696 152 L702 158 L708 152" stroke="#bfbfbf" stroke-width="1.5" fill="none"/>
      </g>
    </g>

    <!-- Buttons Row -->
    <g id="search-buttons">
      <!-- Reset Button -->
      <rect x="952" y="212" width="80" height="32" rx="6" fill="#ffffff" stroke="#d9d9d9" stroke-width="1"/>
      <text x="975" y="233" font-family="Arial, sans-serif" font-size="14" fill="#000000d9">Reset</text>

      <!-- Search Button -->
      <rect x="1044" y="212" width="100" height="32" rx="6" fill="#1677ff" stroke="none"/>
      <circle cx="1068" cy="228" r="6" fill="none" stroke="#ffffff" stroke-width="1.5"/>
      <line x1="1072" y1="232" x2="1078" y2="238" stroke="#ffffff" stroke-width="1.5"/>
      <text x="1084" y="233" font-family="Arial, sans-serif" font-size="14" fill="#ffffff">Search</text>
    </g>

    <!-- Expansion Indicator -->
    <rect x="40" y="112" width="1120" height="1" fill="#f0f0f0"/>
    <text x="600" y="112" font-family="Arial, sans-serif" font-size="10" fill="#bfbfbf" text-anchor="middle" transform="translate(0, -4)">Additional Search Conditions</text>
  </g>

  <!-- ==================== ACTION BAR ==================== -->
  <g id="action-bar">
    <rect x="24" y="280" width="1152" height="48" rx="0" fill="transparent"/>

    <!-- Left: Action Buttons -->
    <g id="action-buttons-left">
      <rect x="24" y="288" width="80" height="32" rx="6" fill="#1677ff" stroke="none"/>
      <text x="38" y="309" font-family="Arial, sans-serif" font-size="14" fill="#ffffff">+ New</text>

      <rect x="116" y="288" width="80" height="32" rx="6" fill="#f5f5f5" stroke="#d9d9d9" stroke-width="1"/>
      <text x="130" y="309" font-family="Arial, sans-serif" font-size="14" fill="#00000040">Delete</text>
    </g>

    <!-- Right: Total Count -->
    <text x="1100" y="309" font-family="Arial, sans-serif" font-size="14" fill="#000000a6" text-anchor="end">Total: 125 items</text>
  </g>

  <!-- ==================== DATA TABLE ==================== -->
  <g id="data-table">
    <!-- Table Container -->
    <rect x="24" y="340" width="1152" height="480" rx="8" fill="#ffffff" stroke="#d9d9d9" stroke-width="1"/>

    <!-- Table Header -->
    <g id="table-header">
      <rect x="24" y="340" width="1152" height="48" rx="8" fill="#fafafa"/>
      <rect x="24" y="380" width="1152" height="8" fill="#ffffff"/>
      <line x1="24" y1="388" x2="1176" y2="388" stroke="#f0f0f0" stroke-width="1"/>

      <!-- Checkbox Column -->
      <rect x="48" y="356" width="16" height="16" rx="2" fill="#ffffff" stroke="#d9d9d9" stroke-width="1"/>

      <!-- Column Headers -->
      <text x="100" y="369" font-family="Arial, sans-serif" font-size="14" font-weight="500" fill="#000000d9">Column 1</text>
      <path d="M162 362 L168 356 L174 362 M162 374 L168 380 L174 374" stroke="#bfbfbf" stroke-width="1" fill="none"/>

      <text x="280" y="369" font-family="Arial, sans-serif" font-size="14" font-weight="500" fill="#000000d9">Column 2</text>
      <path d="M342 362 L348 356 L354 362 M342 374 L348 380 L354 374" stroke="#bfbfbf" stroke-width="1" fill="none"/>

      <text x="460" y="369" font-family="Arial, sans-serif" font-size="14" font-weight="500" fill="#000000d9">Column 3</text>
      <path d="M522 362 L528 356 L534 362 M522 374 L528 380 L534 374" stroke="#bfbfbf" stroke-width="1" fill="none"/>

      <text x="640" y="369" font-family="Arial, sans-serif" font-size="14" font-weight="500" fill="#000000d9">Column 4</text>
      <path d="M702 362 L708 356 L714 362 M702 374 L708 380 L714 374" stroke="#bfbfbf" stroke-width="1" fill="none"/>

      <text x="820" y="369" font-family="Arial, sans-serif" font-size="14" font-weight="500" fill="#000000d9">Status</text>
      <path d="M866 362 L872 356 L878 362 M866 374 L872 380 L878 374" stroke="#bfbfbf" stroke-width="1" fill="none"/>

      <text x="1000" y="369" font-family="Arial, sans-serif" font-size="14" font-weight="500" fill="#000000d9">Actions</text>
    </g>

    <!-- Table Rows -->
    <g id="table-rows">
      <!-- Row 1 -->
      <g id="row-1">
        <rect x="25" y="389" width="1150" height="56" fill="#ffffff"/>
        <line x1="24" y1="445" x2="1176" y2="445" stroke="#f0f0f0" stroke-width="1"/>
        <rect x="48" y="409" width="16" height="16" rx="2" fill="#ffffff" stroke="#d9d9d9" stroke-width="1"/>
        <text x="100" y="422" font-family="Arial, sans-serif" font-size="14" fill="#000000d9">Data Value 1-1</text>
        <text x="280" y="422" font-family="Arial, sans-serif" font-size="14" fill="#000000d9">Data Value 1-2</text>
        <text x="460" y="422" font-family="Arial, sans-serif" font-size="14" fill="#000000d9">Data Value 1-3</text>
        <text x="640" y="422" font-family="Arial, sans-serif" font-size="14" fill="#000000d9">2026-01-15</text>
        <rect x="820" y="408" width="56" height="24" rx="4" fill="#e6f7ff"/>
        <text x="832" y="425" font-family="Arial, sans-serif" font-size="12" fill="#1677ff">Active</text>
        <rect x="1000" y="408" width="56" height="24" rx="4" fill="#ffffff" stroke="#d9d9d9" stroke-width="1"/>
        <text x="1015" y="425" font-family="Arial, sans-serif" font-size="12" fill="#000000d9">Edit</text>
      </g>

      <!-- Row 2 -->
      <g id="row-2">
        <rect x="25" y="446" width="1150" height="56" fill="#ffffff"/>
        <line x1="24" y1="502" x2="1176" y2="502" stroke="#f0f0f0" stroke-width="1"/>
        <rect x="48" y="466" width="16" height="16" rx="2" fill="#ffffff" stroke="#d9d9d9" stroke-width="1"/>
        <text x="100" y="479" font-family="Arial, sans-serif" font-size="14" fill="#000000d9">Data Value 2-1</text>
        <text x="280" y="479" font-family="Arial, sans-serif" font-size="14" fill="#000000d9">Data Value 2-2</text>
        <text x="460" y="479" font-family="Arial, sans-serif" font-size="14" fill="#000000d9">Data Value 2-3</text>
        <text x="640" y="479" font-family="Arial, sans-serif" font-size="14" fill="#000000d9">2026-01-14</text>
        <rect x="820" y="465" width="64" height="24" rx="4" fill="#fff7e6"/>
        <text x="830" y="482" font-family="Arial, sans-serif" font-size="12" fill="#fa8c16">Pending</text>
        <rect x="1000" y="465" width="56" height="24" rx="4" fill="#ffffff" stroke="#d9d9d9" stroke-width="1"/>
        <text x="1015" y="482" font-family="Arial, sans-serif" font-size="12" fill="#000000d9">Edit</text>
      </g>

      <!-- Row 3 -->
      <g id="row-3">
        <rect x="25" y="503" width="1150" height="56" fill="#ffffff"/>
        <line x1="24" y1="559" x2="1176" y2="559" stroke="#f0f0f0" stroke-width="1"/>
        <rect x="48" y="523" width="16" height="16" rx="2" fill="#ffffff" stroke="#d9d9d9" stroke-width="1"/>
        <text x="100" y="536" font-family="Arial, sans-serif" font-size="14" fill="#000000d9">Data Value 3-1</text>
        <text x="280" y="536" font-family="Arial, sans-serif" font-size="14" fill="#000000d9">Data Value 3-2</text>
        <text x="460" y="536" font-family="Arial, sans-serif" font-size="14" fill="#000000d9">Data Value 3-3</text>
        <text x="640" y="536" font-family="Arial, sans-serif" font-size="14" fill="#000000d9">2026-01-13</text>
        <rect x="820" y="522" width="56" height="24" rx="4" fill="#e6f7ff"/>
        <text x="832" y="539" font-family="Arial, sans-serif" font-size="12" fill="#1677ff">Active</text>
        <rect x="1000" y="522" width="56" height="24" rx="4" fill="#ffffff" stroke="#d9d9d9" stroke-width="1"/>
        <text x="1015" y="539" font-family="Arial, sans-serif" font-size="12" fill="#000000d9">Edit</text>
      </g>

      <!-- Row 4 -->
      <g id="row-4">
        <rect x="25" y="560" width="1150" height="56" fill="#ffffff"/>
        <line x1="24" y1="616" x2="1176" y2="616" stroke="#f0f0f0" stroke-width="1"/>
        <rect x="48" y="580" width="16" height="16" rx="2" fill="#ffffff" stroke="#d9d9d9" stroke-width="1"/>
        <text x="100" y="593" font-family="Arial, sans-serif" font-size="14" fill="#000000d9">Data Value 4-1</text>
        <text x="280" y="593" font-family="Arial, sans-serif" font-size="14" fill="#000000d9">Data Value 4-2</text>
        <text x="460" y="593" font-family="Arial, sans-serif" font-size="14" fill="#000000d9">Data Value 4-3</text>
        <text x="640" y="593" font-family="Arial, sans-serif" font-size="14" fill="#000000d9">2026-01-12</text>
        <rect x="820" y="579" width="64" height="24" rx="4" fill="#fff1f0"/>
        <text x="828" y="596" font-family="Arial, sans-serif" font-size="12" fill="#ff4d4f">Inactive</text>
        <rect x="1000" y="579" width="56" height="24" rx="4" fill="#ffffff" stroke="#d9d9d9" stroke-width="1"/>
        <text x="1015" y="596" font-family="Arial, sans-serif" font-size="12" fill="#000000d9">Edit</text>
      </g>

      <!-- Row 5 -->
      <g id="row-5">
        <rect x="25" y="617" width="1150" height="56" fill="#ffffff"/>
        <line x1="24" y1="673" x2="1176" y2="673" stroke="#f0f0f0" stroke-width="1"/>
        <rect x="48" y="637" width="16" height="16" rx="2" fill="#ffffff" stroke="#d9d9d9" stroke-width="1"/>
        <text x="100" y="650" font-family="Arial, sans-serif" font-size="14" fill="#000000d9">Data Value 5-1</text>
        <text x="280" y="650" font-family="Arial, sans-serif" font-size="14" fill="#000000d9">Data Value 5-2</text>
        <text x="460" y="650" font-family="Arial, sans-serif" font-size="14" fill="#000000d9">Data Value 5-3</text>
        <text x="640" y="650" font-family="Arial, sans-serif" font-size="14" fill="#000000d9">2026-01-11</text>
        <rect x="820" y="636" width="56" height="24" rx="4" fill="#e6f7ff"/>
        <text x="832" y="653" font-family="Arial, sans-serif" font-size="12" fill="#1677ff">Active</text>
        <rect x="1000" y="636" width="56" height="24" rx="4" fill="#ffffff" stroke="#d9d9d9" stroke-width="1"/>
        <text x="1015" y="653" font-family="Arial, sans-serif" font-size="12" fill="#000000d9">Edit</text>
      </g>
    </g>

    <!-- Pagination -->
    <g id="pagination">
      <rect x="24" y="760" width="1152" height="60" fill="#ffffff"/>

      <!-- Page Size Selector -->
      <rect x="1040" y="780" width="100" height="28" rx="4" fill="#ffffff" stroke="#d9d9d9" stroke-width="1"/>
      <text x="1055" y="799" font-family="Arial, sans-serif" font-size="13" fill="#000000d9">10 / page</text>
      <path d="M1120 792 L1126 798 L1132 792" stroke="#bfbfbf" stroke-width="1.5" fill="none"/>

      <!-- Page Numbers -->
      <g id="page-numbers" transform="translate(500, 780)">
        <rect x="0" y="0" width="28" height="28" rx="4" fill="#ffffff" stroke="#d9d9d9" stroke-width="1"/>
        <path d="M16 8 L10 14 L16 20" stroke="#000000d9" stroke-width="1.5" fill="none"/>

        <rect x="36" y="0" width="28" height="28" rx="4" fill="#1677ff"/>
        <text x="46" y="19" font-family="Arial, sans-serif" font-size="14" fill="#ffffff">1</text>

        <rect x="72" y="0" width="28" height="28" rx="4" fill="#ffffff" stroke="#d9d9d9" stroke-width="1"/>
        <text x="82" y="19" font-family="Arial, sans-serif" font-size="14" fill="#000000d9">2</text>

        <rect x="108" y="0" width="28" height="28" rx="4" fill="#ffffff" stroke="#d9d9d9" stroke-width="1"/>
        <text x="118" y="19" font-family="Arial, sans-serif" font-size="14" fill="#000000d9">3</text>

        <text x="152" y="19" font-family="Arial, sans-serif" font-size="14" fill="#000000a6">...</text>

        <rect x="180" y="0" width="32" height="28" rx="4" fill="#ffffff" stroke="#d9d9d9" stroke-width="1"/>
        <text x="188" y="19" font-family="Arial, sans-serif" font-size="14" fill="#000000d9">13</text>

        <rect x="220" y="0" width="28" height="28" rx="4" fill="#ffffff" stroke="#d9d9d9" stroke-width="1"/>
        <path d="M230 8 L236 14 L230 20" stroke="#000000d9" stroke-width="1.5" fill="none"/>
      </g>
    </g>
  </g>

  <!-- Legend -->
  <g id="legend" transform="translate(24, 860)">
    <text x="0" y="0" font-family="Arial, sans-serif" font-size="11" fill="#8c8c8c">SCR-02: List Screen - Search Expanded State | Additional search fields visible</text>
  </g>
</svg>
