<svg xmlns="http://www.w3.org/2000/svg" viewBox="0 0 1200 800">
  <defs>
    <style>
      .bg { fill: #F8FAFC; }
      .card-bg { fill: #FFFFFF; stroke: #E2E8F0; stroke-width: 1; }
      .card-shadow { fill: #FFFFFF; filter: drop-shadow(0 1px 3px rgba(0,0,0,0.1)); }
      .text-title { font-family: Arial, Helvetica, sans-serif; font-size: 18px; font-weight: 600; fill: #0F172A; }
      .text-subtitle { font-family: Arial, Helvetica, sans-serif; font-size: 14px; font-weight: 500; fill: #0F172A; }
      .text-label { font-family: Arial, Helvetica, sans-serif; font-size: 13px; fill: #475569; }
      .text-value { font-family: Arial, Helvetica, sans-serif; font-size: 14px; font-weight: 500; fill: #0F172A; }
      .text-small { font-family: Arial, Helvetica, sans-serif; font-size: 11px; fill: #64748B; }
      .text-time { font-family: Arial, Helvetica, sans-serif; font-size: 12px; fill: #94A3B8; }
      .text-day { font-family: Arial, Helvetica, sans-serif; font-size: 13px; font-weight: 500; fill: #475569; }
      .text-day-weekend { font-family: Arial, Helvetica, sans-serif; font-size: 13px; font-weight: 500; fill: #FF4D4F; }
      .text-date { font-family: Arial, Helvetica, sans-serif; font-size: 20px; font-weight: 600; fill: #0F172A; }
      .text-date-today { font-family: Arial, Helvetica, sans-serif; font-size: 20px; font-weight: 600; fill: #FFFFFF; }
      .btn-primary { fill: #1677FF; }
      .btn-default { fill: #FFFFFF; stroke: #D9D9D9; stroke-width: 1; }
      .btn-text { font-family: Arial, Helvetica, sans-serif; font-size: 13px; fill: #FFFFFF; }
      .btn-text-default { font-family: Arial, Helvetica, sans-serif; font-size: 13px; fill: #475569; }
      .segmented-bg { fill: #F5F5F5; }
      .segmented-active { fill: #FFFFFF; }
      .segmented-text { font-family: Arial, Helvetica, sans-serif; font-size: 13px; fill: #595959; }
      .segmented-text-active { font-family: Arial, Helvetica, sans-serif; font-size: 13px; font-weight: 500; fill: #0F172A; }
      .grid-line { stroke: #E5E7EB; stroke-width: 1; }
      .grid-line-light { stroke: #F3F4F6; stroke-width: 1; stroke-dasharray: 2,2; }
      .today-circle { fill: #1677FF; }
      .today-column { fill: rgba(22, 119, 255, 0.04); }
      .block-production { fill: rgba(82, 196, 26, 0.15); stroke: #52C41A; stroke-width: 1; }
      .block-production-text { font-family: Arial, Helvetica, sans-serif; font-size: 11px; fill: #389E0D; }
      .block-production-title { font-family: Arial, Helvetica, sans-serif; font-size: 12px; font-weight: 500; fill: #389E0D; }
      .block-maintenance { fill: rgba(250, 140, 22, 0.15); stroke: #FA8C16; stroke-width: 1; }
      .block-maintenance-text { font-family: Arial, Helvetica, sans-serif; font-size: 11px; fill: #D46B08; }
      .block-maintenance-title { font-family: Arial, Helvetica, sans-serif; font-size: 12px; font-weight: 500; fill: #D46B08; }
      .block-meeting { fill: rgba(22, 119, 255, 0.15); stroke: #1677FF; stroke-width: 1; }
      .block-meeting-text { font-family: Arial, Helvetica, sans-serif; font-size: 11px; fill: #0958D9; }
      .block-meeting-title { font-family: Arial, Helvetica, sans-serif; font-size: 12px; font-weight: 500; fill: #0958D9; }
      .block-training { fill: rgba(114, 46, 209, 0.15); stroke: #722ED1; stroke-width: 1; }
      .block-training-text { font-family: Arial, Helvetica, sans-serif; font-size: 11px; fill: #531DAB; }
      .block-training-title { font-family: Arial, Helvetica, sans-serif; font-size: 12px; font-weight: 500; fill: #531DAB; }
    </style>
  </defs>

  <!-- Background -->
  <rect class="bg" width="1200" height="800"/>

  <!-- Page Header -->
  <text x="24" y="40" class="text-title">Work Schedule Calendar</text>

  <!-- Calendar Header -->
  <rect x="24" y="56" width="1152" height="56" rx="6" class="card-shadow"/>

  <!-- Navigation Buttons -->
  <rect x="40" y="72" width="32" height="28" rx="4" class="btn-default"/>
  <path d="M52 82 L58 86 L58 78 Z" fill="#595959"/>

  <rect x="80" y="72" width="48" height="28" rx="4" class="btn-default"/>
  <text x="104" y="90" class="btn-text-default" text-anchor="middle">Today</text>

  <rect x="136" y="72" width="32" height="28" rx="4" class="btn-default"/>
  <path d="M156 82 L150 78 L150 86 Z" fill="#595959"/>

  <!-- Current Week Title -->
  <text x="200" y="92" class="text-subtitle">January 2026, Week 2</text>

  <!-- View Segmented Control -->
  <rect x="880" y="72" width="180" height="28" rx="4" class="segmented-bg"/>
  <text x="911" y="91" class="segmented-text" text-anchor="middle">Month</text>
  <rect x="940" y="74" width="58" height="24" rx="3" class="segmented-active" filter="drop-shadow(0 1px 2px rgba(0,0,0,0.1))"/>
  <text x="970" y="91" class="segmented-text-active" text-anchor="middle">Week</text>
  <text x="1029" y="91" class="segmented-text" text-anchor="middle">Day</text>

  <!-- Add Schedule Button -->
  <rect x="1076" y="72" width="84" height="28" rx="4" class="btn-primary"/>
  <text x="1098" y="90" class="btn-text">+</text>
  <text x="1112" y="90" class="btn-text">Schedule</text>

  <!-- Calendar Grid -->
  <rect x="24" y="128" width="1152" height="648" rx="6" class="card-shadow"/>

  <!-- Day Headers -->
  <rect x="24" y="128" width="1152" height="56" rx="6" fill="#FAFAFA"/>

  <!-- Time Column Header -->
  <rect x="24" y="128" width="60" height="56" fill="#FAFAFA"/>

  <!-- Day Headers with Dates -->
  <!-- Sun 4 -->
  <text x="138" y="150" class="text-day-weekend" text-anchor="middle">Sun</text>
  <text x="138" y="172" class="text-date" text-anchor="middle">4</text>

  <!-- Mon 5 -->
  <text x="294" y="150" class="text-day" text-anchor="middle">Mon</text>
  <text x="294" y="172" class="text-date" text-anchor="middle">5</text>

  <!-- Tue 6 -->
  <text x="450" y="150" class="text-day" text-anchor="middle">Tue</text>
  <text x="450" y="172" class="text-date" text-anchor="middle">6</text>

  <!-- Wed 7 -->
  <text x="606" y="150" class="text-day" text-anchor="middle">Wed</text>
  <text x="606" y="172" class="text-date" text-anchor="middle">7</text>

  <!-- Thu 8 (Today) -->
  <rect x="684" y="184" width="156" height="592" class="today-column"/>
  <text x="762" y="150" class="text-day" text-anchor="middle">Thu</text>
  <circle cx="762" cy="168" r="16" class="today-circle"/>
  <text x="762" y="174" class="text-date-today" text-anchor="middle">8</text>

  <!-- Fri 9 -->
  <text x="918" y="150" class="text-day" text-anchor="middle">Fri</text>
  <text x="918" y="172" class="text-date" text-anchor="middle">9</text>

  <!-- Sat 10 -->
  <text x="1074" y="150" class="text-day-weekend" text-anchor="middle">Sat</text>
  <text x="1074" y="172" class="text-date" text-anchor="middle">10</text>

  <!-- Grid Lines -->
  <!-- Vertical lines -->
  <line x1="84" y1="184" x2="84" y2="776" class="grid-line"/>
  <line x1="240" y1="184" x2="240" y2="776" class="grid-line"/>
  <line x1="396" y1="184" x2="396" y2="776" class="grid-line"/>
  <line x1="552" y1="184" x2="552" y2="776" class="grid-line"/>
  <line x1="708" y1="184" x2="708" y2="776" class="grid-line"/>
  <line x1="864" y1="184" x2="864" y2="776" class="grid-line"/>
  <line x1="1020" y1="184" x2="1020" y2="776" class="grid-line"/>

  <!-- Horizontal lines (hourly) -->
  <line x1="24" y1="184" x2="1176" y2="184" class="grid-line"/>
  <!-- 08:00 -->
  <text x="54" y="199" class="text-time" text-anchor="end">08:00</text>
  <line x1="84" y1="232" x2="1176" y2="232" class="grid-line-light"/>
  <!-- 09:00 -->
  <text x="54" y="247" class="text-time" text-anchor="end">09:00</text>
  <line x1="24" y1="232" x2="1176" y2="232" class="grid-line"/>
  <line x1="84" y1="280" x2="1176" y2="280" class="grid-line-light"/>
  <!-- 10:00 -->
  <text x="54" y="295" class="text-time" text-anchor="end">10:00</text>
  <line x1="24" y1="280" x2="1176" y2="280" class="grid-line"/>
  <line x1="84" y1="328" x2="1176" y2="328" class="grid-line-light"/>
  <!-- 11:00 -->
  <text x="54" y="343" class="text-time" text-anchor="end">11:00</text>
  <line x1="24" y1="328" x2="1176" y2="328" class="grid-line"/>
  <line x1="84" y1="376" x2="1176" y2="376" class="grid-line-light"/>
  <!-- 12:00 -->
  <text x="54" y="391" class="text-time" text-anchor="end">12:00</text>
  <line x1="24" y1="376" x2="1176" y2="376" class="grid-line"/>
  <line x1="84" y1="424" x2="1176" y2="424" class="grid-line-light"/>
  <!-- 13:00 -->
  <text x="54" y="439" class="text-time" text-anchor="end">13:00</text>
  <line x1="24" y1="424" x2="1176" y2="424" class="grid-line"/>
  <line x1="84" y1="472" x2="1176" y2="472" class="grid-line-light"/>
  <!-- 14:00 -->
  <text x="54" y="487" class="text-time" text-anchor="end">14:00</text>
  <line x1="24" y1="472" x2="1176" y2="472" class="grid-line"/>
  <line x1="84" y1="520" x2="1176" y2="520" class="grid-line-light"/>
  <!-- 15:00 -->
  <text x="54" y="535" class="text-time" text-anchor="end">15:00</text>
  <line x1="24" y1="520" x2="1176" y2="520" class="grid-line"/>
  <line x1="84" y1="568" x2="1176" y2="568" class="grid-line-light"/>
  <!-- 16:00 -->
  <text x="54" y="583" class="text-time" text-anchor="end">16:00</text>
  <line x1="24" y1="568" x2="1176" y2="568" class="grid-line"/>
  <line x1="84" y1="616" x2="1176" y2="616" class="grid-line-light"/>
  <!-- 17:00 -->
  <text x="54" y="631" class="text-time" text-anchor="end">17:00</text>
  <line x1="24" y1="616" x2="1176" y2="616" class="grid-line"/>
  <line x1="84" y1="664" x2="1176" y2="664" class="grid-line-light"/>
  <!-- 18:00 -->
  <text x="54" y="679" class="text-time" text-anchor="end">18:00</text>
  <line x1="24" y1="664" x2="1176" y2="664" class="grid-line"/>
  <line x1="84" y1="712" x2="1176" y2="712" class="grid-line-light"/>
  <!-- 19:00 -->
  <text x="54" y="727" class="text-time" text-anchor="end">19:00</text>
  <line x1="24" y1="712" x2="1176" y2="712" class="grid-line"/>

  <!-- Schedule Blocks -->

  <!-- Sunday (4) - Maintenance 08:00-12:00 -->
  <rect x="92" y="192" width="140" height="184" rx="4" class="block-maintenance"/>
  <text x="100" y="210" class="block-maintenance-title">Equipment Check</text>
  <text x="100" y="226" class="block-maintenance-text">Park Maintenance</text>
  <text x="100" y="242" class="block-maintenance-text">08:00 - 12:00</text>

  <!-- Tuesday (6) - Training 09:00-12:00 -->
  <rect x="404" y="240" width="140" height="136" rx="4" class="block-training"/>
  <text x="412" y="258" class="block-training-title">Safety Training</text>
  <text x="412" y="274" class="block-training-text">Choi Training</text>
  <text x="412" y="290" class="block-training-text">09:00 - 12:00</text>

  <!-- Thursday (8/Today) - Production 09:00-18:00 -->
  <rect x="716" y="240" width="140" height="424" rx="4" class="block-production"/>
  <text x="724" y="258" class="block-production-title">Line A Production</text>
  <text x="724" y="274" class="block-production-text">Kim Production</text>
  <text x="724" y="290" class="block-production-text">09:00 - 18:00</text>
  <text x="724" y="320" class="block-production-text">Target: 1,000 units</text>

  <!-- Thursday (8/Today) - Meeting 14:00-15:00 -->
  <rect x="716" y="480" width="140" height="40" rx="4" class="block-meeting"/>
  <text x="724" y="498" class="block-meeting-title">Weekly Meeting</text>
  <text x="724" y="514" class="block-meeting-text">14:00 - 15:00</text>

  <!-- Legend -->
  <text x="24" y="792" class="text-small">Click on a schedule to view details. Drag to reschedule.</text>

  <!-- Schedule Type Legend -->
  <rect x="700" y="782" width="12" height="12" rx="2" fill="rgba(82, 196, 26, 0.15)" stroke="#52C41A" stroke-width="1"/>
  <text x="718" y="792" class="text-small">Production</text>
  <rect x="790" y="782" width="12" height="12" rx="2" fill="rgba(250, 140, 22, 0.15)" stroke="#FA8C16" stroke-width="1"/>
  <text x="808" y="792" class="text-small">Maintenance</text>
  <rect x="900" y="782" width="12" height="12" rx="2" fill="rgba(22, 119, 255, 0.15)" stroke="#1677FF" stroke-width="1"/>
  <text x="918" y="792" class="text-small">Meeting</text>
  <rect x="980" y="782" width="12" height="12" rx="2" fill="rgba(114, 46, 209, 0.15)" stroke="#722ED1" stroke-width="1"/>
  <text x="998" y="792" class="text-small">Training</text>
</svg>
