<svg xmlns="http://www.w3.org/2000/svg" viewBox="0 0 1200 800">
  <defs>
    <style>
      .bg { fill: #F8FAFC; }
      .card-bg { fill: #FFFFFF; stroke: #E2E8F0; stroke-width: 1; }
      .card-shadow { fill: #FFFFFF; filter: drop-shadow(0 1px 3px rgba(0,0,0,0.1)); }
      .text-title { font-family: Arial, Helvetica, sans-serif; font-size: 18px; font-weight: 600; fill: #0F172A; }
      .text-subtitle { font-family: Arial, Helvetica, sans-serif; font-size: 14px; font-weight: 500; fill: #0F172A; }
      .text-label { font-family: Arial, Helvetica, sans-serif; font-size: 13px; fill: #475569; }
      .text-value { font-family: Arial, Helvetica, sans-serif; font-size: 14px; font-weight: 500; fill: #0F172A; }
      .text-small { font-family: Arial, Helvetica, sans-serif; font-size: 11px; fill: #64748B; }
      .text-day { font-family: Arial, Helvetica, sans-serif; font-size: 13px; font-weight: 500; fill: #475569; }
      .text-day-weekend { font-family: Arial, Helvetica, sans-serif; font-size: 13px; font-weight: 500; fill: #FF4D4F; }
      .text-date { font-family: Arial, Helvetica, sans-serif; font-size: 14px; fill: #0F172A; }
      .text-date-other { font-family: Arial, Helvetica, sans-serif; font-size: 14px; fill: #94A3B8; }
      .text-date-today { font-family: Arial, Helvetica, sans-serif; font-size: 14px; font-weight: 600; fill: #FFFFFF; }
      .btn-primary { fill: #1677FF; }
      .btn-default { fill: #FFFFFF; stroke: #D9D9D9; stroke-width: 1; }
      .btn-text { font-family: Arial, Helvetica, sans-serif; font-size: 13px; fill: #FFFFFF; }
      .btn-text-default { font-family: Arial, Helvetica, sans-serif; font-size: 13px; fill: #475569; }
      .segmented-bg { fill: #F5F5F5; }
      .segmented-active { fill: #FFFFFF; }
      .segmented-text { font-family: Arial, Helvetica, sans-serif; font-size: 13px; fill: #595959; }
      .segmented-text-active { font-family: Arial, Helvetica, sans-serif; font-size: 13px; font-weight: 500; fill: #0F172A; }
      .grid-line { stroke: #E5E7EB; stroke-width: 1; }
      .today-circle { fill: #1677FF; }
      .tag-production { fill: #F6FFED; stroke: #52C41A; stroke-width: 1; }
      .tag-production-text { font-family: Arial, Helvetica, sans-serif; font-size: 11px; fill: #52C41A; }
      .tag-maintenance { fill: #FFF7E6; stroke: #FA8C16; stroke-width: 1; }
      .tag-maintenance-text { font-family: Arial, Helvetica, sans-serif; font-size: 11px; fill: #FA8C16; }
      .tag-meeting { fill: #E6F4FF; stroke: #1677FF; stroke-width: 1; }
      .tag-meeting-text { font-family: Arial, Helvetica, sans-serif; font-size: 11px; fill: #1677FF; }
      .tag-training { fill: #F9F0FF; stroke: #722ED1; stroke-width: 1; }
      .tag-training-text { font-family: Arial, Helvetica, sans-serif; font-size: 11px; fill: #722ED1; }
      .cell-hover { fill: rgba(22, 119, 255, 0.04); }
    </style>
  </defs>

  <!-- Background -->
  <rect class="bg" width="1200" height="800"/>

  <!-- Page Header -->
  <text x="24" y="40" class="text-title">Work Schedule Calendar</text>

  <!-- Calendar Header -->
  <rect x="24" y="56" width="1152" height="56" rx="6" class="card-shadow"/>

  <!-- Navigation Buttons -->
  <rect x="40" y="72" width="32" height="28" rx="4" class="btn-default"/>
  <path d="M52 82 L58 86 L58 78 Z" fill="#595959"/>

  <rect x="80" y="72" width="48" height="28" rx="4" class="btn-default"/>
  <text x="104" y="90" class="btn-text-default" text-anchor="middle">Today</text>

  <rect x="136" y="72" width="32" height="28" rx="4" class="btn-default"/>
  <path d="M156 82 L150 78 L150 86 Z" fill="#595959"/>

  <!-- Current Month Title -->
  <text x="200" y="92" class="text-subtitle">January 2026</text>

  <!-- View Segmented Control -->
  <rect x="880" y="72" width="180" height="28" rx="4" class="segmented-bg"/>
  <rect x="882" y="74" width="58" height="24" rx="3" class="segmented-active" filter="drop-shadow(0 1px 2px rgba(0,0,0,0.1))"/>
  <text x="911" y="91" class="segmented-text-active" text-anchor="middle">Month</text>
  <text x="970" y="91" class="segmented-text" text-anchor="middle">Week</text>
  <text x="1029" y="91" class="segmented-text" text-anchor="middle">Day</text>

  <!-- Add Schedule Button -->
  <rect x="1076" y="72" width="84" height="28" rx="4" class="btn-primary"/>
  <text x="1098" y="90" class="btn-text">+</text>
  <text x="1112" y="90" class="btn-text">Schedule</text>

  <!-- Calendar Grid -->
  <rect x="24" y="128" width="1152" height="648" rx="6" class="card-shadow"/>

  <!-- Day Headers -->
  <rect x="24" y="128" width="1152" height="36" rx="6" fill="#FAFAFA"/>
  <text x="106" y="152" class="text-day-weekend" text-anchor="middle">Sun</text>
  <text x="270" y="152" class="text-day" text-anchor="middle">Mon</text>
  <text x="434" y="152" class="text-day" text-anchor="middle">Tue</text>
  <text x="598" y="152" class="text-day" text-anchor="middle">Wed</text>
  <text x="762" y="152" class="text-day" text-anchor="middle">Thu</text>
  <text x="926" y="152" class="text-day" text-anchor="middle">Fri</text>
  <text x="1090" y="152" class="text-day-weekend" text-anchor="middle">Sat</text>

  <!-- Grid Lines -->
  <!-- Vertical lines -->
  <line x1="188" y1="164" x2="188" y2="776" class="grid-line"/>
  <line x1="352" y1="164" x2="352" y2="776" class="grid-line"/>
  <line x1="516" y1="164" x2="516" y2="776" class="grid-line"/>
  <line x1="680" y1="164" x2="680" y2="776" class="grid-line"/>
  <line x1="844" y1="164" x2="844" y2="776" class="grid-line"/>
  <line x1="1008" y1="164" x2="1008" y2="776" class="grid-line"/>

  <!-- Horizontal lines -->
  <line x1="24" y1="164" x2="1176" y2="164" class="grid-line"/>
  <line x1="24" y1="266" x2="1176" y2="266" class="grid-line"/>
  <line x1="24" y1="368" x2="1176" y2="368" class="grid-line"/>
  <line x1="24" y1="470" x2="1176" y2="470" class="grid-line"/>
  <line x1="24" y1="572" x2="1176" y2="572" class="grid-line"/>
  <line x1="24" y1="674" x2="1176" y2="674" class="grid-line"/>

  <!-- Week 1 (Dec 28 - Jan 3) -->
  <!-- Dec 28 -->
  <text x="36" y="184" class="text-date-other">28</text>
  <!-- Dec 29 -->
  <text x="200" y="184" class="text-date-other">29</text>
  <!-- Dec 30 -->
  <text x="364" y="184" class="text-date-other">30</text>
  <!-- Dec 31 -->
  <text x="528" y="184" class="text-date-other">31</text>
  <!-- Jan 1 -->
  <text x="692" y="184" class="text-date">1</text>
  <rect x="692" y="196" width="140" height="22" rx="3" class="tag-production"/>
  <text x="700" y="211" class="tag-production-text">Production: Line A</text>
  <!-- Jan 2 -->
  <text x="856" y="184" class="text-date">2</text>
  <!-- Jan 3 -->
  <text x="1020" y="184" class="text-date">3</text>

  <!-- Week 2 (Jan 4 - 10) -->
  <!-- Jan 4 -->
  <text x="36" y="286" class="text-date">4</text>
  <rect x="36" y="298" width="140" height="22" rx="3" class="tag-maintenance"/>
  <text x="44" y="313" class="tag-maintenance-text">Maintenance Check</text>
  <!-- Jan 5 -->
  <text x="200" y="286" class="text-date">5</text>
  <!-- Jan 6 -->
  <text x="364" y="286" class="text-date">6</text>
  <rect x="364" y="298" width="140" height="22" rx="3" class="tag-training"/>
  <text x="372" y="313" class="tag-training-text">Safety Training</text>
  <!-- Jan 7 -->
  <text x="528" y="286" class="text-date">7</text>
  <!-- Jan 8 (Today) -->
  <circle cx="700" cy="284" r="14" class="today-circle"/>
  <text x="700" y="289" class="text-date-today" text-anchor="middle">8</text>
  <rect x="692" y="308" width="140" height="22" rx="3" class="tag-production"/>
  <text x="700" y="323" class="tag-production-text">Production: Line A</text>
  <rect x="692" y="334" width="140" height="22" rx="3" class="tag-meeting"/>
  <text x="700" y="349" class="tag-meeting-text">Weekly Meeting</text>
  <!-- Jan 9 -->
  <text x="856" y="286" class="text-date">9</text>
  <!-- Jan 10 -->
  <text x="1020" y="286" class="text-date">10</text>

  <!-- Week 3 (Jan 11 - 17) -->
  <!-- Jan 11 -->
  <text x="36" y="388" class="text-date">11</text>
  <!-- Jan 12 -->
  <text x="200" y="388" class="text-date">12</text>
  <rect x="200" y="400" width="140" height="22" rx="3" class="tag-production"/>
  <text x="208" y="415" class="tag-production-text">Production: Line B</text>
  <!-- Jan 13 -->
  <text x="364" y="388" class="text-date">13</text>
  <!-- Jan 14 -->
  <text x="528" y="388" class="text-date">14</text>
  <rect x="528" y="400" width="140" height="22" rx="3" class="tag-maintenance"/>
  <text x="536" y="415" class="tag-maintenance-text">Equipment Check</text>
  <!-- Jan 15 -->
  <text x="692" y="388" class="text-date">15</text>
  <!-- Jan 16 -->
  <text x="856" y="388" class="text-date">16</text>
  <rect x="856" y="400" width="140" height="22" rx="3" class="tag-meeting"/>
  <text x="864" y="415" class="tag-meeting-text">Planning Meeting</text>
  <!-- Jan 17 -->
  <text x="1020" y="388" class="text-date">17</text>

  <!-- Week 4 (Jan 18 - 24) -->
  <!-- Jan 18 -->
  <text x="36" y="490" class="text-date">18</text>
  <rect x="36" y="502" width="140" height="22" rx="3" class="tag-training"/>
  <text x="44" y="517" class="tag-training-text">Technical Training</text>
  <!-- Jan 19 -->
  <text x="200" y="490" class="text-date">19</text>
  <!-- Jan 20 -->
  <text x="364" y="490" class="text-date">20</text>
  <!-- Jan 21 -->
  <text x="528" y="490" class="text-date">21</text>
  <rect x="528" y="502" width="140" height="22" rx="3" class="tag-production"/>
  <text x="536" y="517" class="tag-production-text">Production: Line C</text>
  <!-- Jan 22 -->
  <text x="692" y="490" class="text-date">22</text>
  <!-- Jan 23 -->
  <text x="856" y="490" class="text-date">23</text>
  <!-- Jan 24 -->
  <text x="1020" y="490" class="text-date">24</text>

  <!-- Week 5 (Jan 25 - 31) -->
  <!-- Jan 25 -->
  <text x="36" y="592" class="text-date">25</text>
  <!-- Jan 26 -->
  <text x="200" y="592" class="text-date">26</text>
  <rect x="200" y="604" width="140" height="22" rx="3" class="tag-maintenance"/>
  <text x="208" y="619" class="tag-maintenance-text">Monthly Inspection</text>
  <!-- Jan 27 -->
  <text x="364" y="592" class="text-date">27</text>
  <!-- Jan 28 -->
  <text x="528" y="592" class="text-date">28</text>
  <!-- Jan 29 -->
  <text x="692" y="592" class="text-date">29</text>
  <!-- Jan 30 -->
  <text x="856" y="592" class="text-date">30</text>
  <!-- Jan 31 -->
  <text x="1020" y="592" class="text-date">31</text>

  <!-- Week 6 (Feb 1 - 7) -->
  <!-- Feb 1 -->
  <text x="36" y="694" class="text-date-other">1</text>
  <!-- Feb 2 -->
  <text x="200" y="694" class="text-date-other">2</text>
  <!-- Feb 3 -->
  <text x="364" y="694" class="text-date-other">3</text>
  <!-- Feb 4 -->
  <text x="528" y="694" class="text-date-other">4</text>
  <!-- Feb 5 -->
  <text x="692" y="694" class="text-date-other">5</text>
  <!-- Feb 6 -->
  <text x="856" y="694" class="text-date-other">6</text>
  <!-- Feb 7 -->
  <text x="1020" y="694" class="text-date-other">7</text>

  <!-- Legend -->
  <text x="24" y="792" class="text-small">Click on a schedule to view details. Double-click on an empty date to create a new schedule.</text>

  <!-- Schedule Type Legend -->
  <rect x="700" y="782" width="12" height="12" rx="2" class="tag-production"/>
  <text x="718" y="792" class="text-small">Production</text>
  <rect x="790" y="782" width="12" height="12" rx="2" class="tag-maintenance"/>
  <text x="808" y="792" class="text-small">Maintenance</text>
  <rect x="900" y="782" width="12" height="12" rx="2" class="tag-meeting"/>
  <text x="918" y="792" class="text-small">Meeting</text>
  <rect x="980" y="782" width="12" height="12" rx="2" class="tag-training"/>
  <text x="998" y="792" class="text-small">Training</text>
</svg>
