<svg xmlns="http://www.w3.org/2000/svg" viewBox="0 0 1200 800">
  <defs>
    <style>
      .bg { fill: #F8FAFC; }
      .card-bg { fill: #FFFFFF; stroke: #E2E8F0; stroke-width: 1; }
      .card-shadow { fill: #FFFFFF; filter: drop-shadow(0 1px 3px rgba(0,0,0,0.1)); }
      .text-title { font-family: Arial, Helvetica, sans-serif; font-size: 18px; font-weight: 600; fill: #0F172A; }
      .text-subtitle { font-family: Arial, Helvetica, sans-serif; font-size: 14px; font-weight: 500; fill: #0F172A; }
      .text-label { font-family: Arial, Helvetica, sans-serif; font-size: 13px; fill: #475569; }
      .text-value { font-family: Arial, Helvetica, sans-serif; font-size: 14px; font-weight: 500; fill: #0F172A; }
      .text-small { font-family: Arial, Helvetica, sans-serif; font-size: 11px; fill: #64748B; }
      .text-time { font-family: Arial, Helvetica, sans-serif; font-size: 12px; fill: #94A3B8; }
      .btn-primary { fill: #1677FF; }
      .btn-default { fill: #FFFFFF; stroke: #D9D9D9; stroke-width: 1; }
      .btn-text { font-family: Arial, Helvetica, sans-serif; font-size: 13px; fill: #FFFFFF; }
      .btn-text-default { font-family: Arial, Helvetica, sans-serif; font-size: 13px; fill: #475569; }
      .segmented-bg { fill: #F5F5F5; }
      .segmented-active { fill: #FFFFFF; }
      .segmented-text { font-family: Arial, Helvetica, sans-serif; font-size: 13px; fill: #595959; }
      .segmented-text-active { font-family: Arial, Helvetica, sans-serif; font-size: 13px; font-weight: 500; fill: #0F172A; }
      .grid-line { stroke: #E5E7EB; stroke-width: 1; }
      .grid-line-light { stroke: #F3F4F6; stroke-width: 1; stroke-dasharray: 2,2; }
      .today-circle { fill: #1677FF; }
      .block-production { fill: rgba(82, 196, 26, 0.15); stroke: #52C41A; stroke-width: 2; }
      .block-production-text { font-family: Arial, Helvetica, sans-serif; font-size: 12px; fill: #389E0D; }
      .block-production-title { font-family: Arial, Helvetica, sans-serif; font-size: 14px; font-weight: 600; fill: #389E0D; }
      .block-production-desc { font-family: Arial, Helvetica, sans-serif; font-size: 11px; fill: #52C41A; }
      .block-meeting { fill: rgba(22, 119, 255, 0.15); stroke: #1677FF; stroke-width: 2; }
      .block-meeting-text { font-family: Arial, Helvetica, sans-serif; font-size: 12px; fill: #0958D9; }
      .block-meeting-title { font-family: Arial, Helvetica, sans-serif; font-size: 14px; font-weight: 600; fill: #0958D9; }
      .block-meeting-desc { font-family: Arial, Helvetica, sans-serif; font-size: 11px; fill: #1677FF; }
      .current-time { stroke: #FF4D4F; stroke-width: 2; }
      .current-time-circle { fill: #FF4D4F; }
      .schedule-column { fill: rgba(22, 119, 255, 0.02); }
    </style>
  </defs>

  <!-- Background -->
  <rect class="bg" width="1200" height="800"/>

  <!-- Page Header -->
  <text x="24" y="40" class="text-title">Work Schedule Calendar</text>

  <!-- Calendar Header -->
  <rect x="24" y="56" width="1152" height="56" rx="6" class="card-shadow"/>

  <!-- Navigation Buttons -->
  <rect x="40" y="72" width="32" height="28" rx="4" class="btn-default"/>
  <path d="M52 82 L58 86 L58 78 Z" fill="#595959"/>

  <rect x="80" y="72" width="48" height="28" rx="4" class="btn-default"/>
  <text x="104" y="90" class="btn-text-default" text-anchor="middle">Today</text>

  <rect x="136" y="72" width="32" height="28" rx="4" class="btn-default"/>
  <path d="M156 82 L150 78 L150 86 Z" fill="#595959"/>

  <!-- Current Day Title -->
  <text x="200" y="92" class="text-subtitle">January 8, 2026 (Thu)</text>
  <circle cx="362" cy="86" r="8" class="today-circle"/>
  <text x="362" y="90" fill="#FFFFFF" font-size="10" font-family="Arial" text-anchor="middle">8</text>

  <!-- View Segmented Control -->
  <rect x="880" y="72" width="180" height="28" rx="4" class="segmented-bg"/>
  <text x="911" y="91" class="segmented-text" text-anchor="middle">Month</text>
  <text x="970" y="91" class="segmented-text" text-anchor="middle">Week</text>
  <rect x="998" y="74" width="58" height="24" rx="3" class="segmented-active" filter="drop-shadow(0 1px 2px rgba(0,0,0,0.1))"/>
  <text x="1029" y="91" class="segmented-text-active" text-anchor="middle">Day</text>

  <!-- Add Schedule Button -->
  <rect x="1076" y="72" width="84" height="28" rx="4" class="btn-primary"/>
  <text x="1098" y="90" class="btn-text">+</text>
  <text x="1112" y="90" class="btn-text">Schedule</text>

  <!-- Calendar Grid -->
  <rect x="24" y="128" width="1152" height="648" rx="6" class="card-shadow"/>

  <!-- Header -->
  <rect x="24" y="128" width="1152" height="36" rx="6" fill="#FAFAFA"/>
  <text x="54" y="152" class="text-time" text-anchor="end">Time</text>
  <text x="600" y="152" class="text-label" text-anchor="middle">Schedule</text>

  <!-- Time Column -->
  <rect x="24" y="164" width="60" height="612" fill="#FAFAFA"/>

  <!-- Schedule Column Background -->
  <rect x="84" y="164" width="1092" height="612" class="schedule-column"/>

  <!-- Grid Lines -->
  <line x1="84" y1="164" x2="84" y2="776" class="grid-line"/>

  <!-- Horizontal lines (hourly) -->
  <line x1="24" y1="164" x2="1176" y2="164" class="grid-line"/>
  <!-- 08:00 -->
  <text x="54" y="184" class="text-time" text-anchor="end">08:00</text>
  <line x1="84" y1="214" x2="1176" y2="214" class="grid-line-light"/>
  <!-- 09:00 -->
  <text x="54" y="234" class="text-time" text-anchor="end">09:00</text>
  <line x1="24" y1="214" x2="1176" y2="214" class="grid-line"/>
  <line x1="84" y1="264" x2="1176" y2="264" class="grid-line-light"/>
  <!-- 10:00 -->
  <text x="54" y="284" class="text-time" text-anchor="end">10:00</text>
  <line x1="24" y1="264" x2="1176" y2="264" class="grid-line"/>
  <line x1="84" y1="314" x2="1176" y2="314" class="grid-line-light"/>
  <!-- 11:00 -->
  <text x="54" y="334" class="text-time" text-anchor="end">11:00</text>
  <line x1="24" y1="314" x2="1176" y2="314" class="grid-line"/>
  <line x1="84" y1="364" x2="1176" y2="364" class="grid-line-light"/>
  <!-- 12:00 -->
  <text x="54" y="384" class="text-time" text-anchor="end">12:00</text>
  <line x1="24" y1="364" x2="1176" y2="364" class="grid-line"/>
  <line x1="84" y1="414" x2="1176" y2="414" class="grid-line-light"/>
  <!-- 13:00 -->
  <text x="54" y="434" class="text-time" text-anchor="end">13:00</text>
  <line x1="24" y1="414" x2="1176" y2="414" class="grid-line"/>
  <line x1="84" y1="464" x2="1176" y2="464" class="grid-line-light"/>
  <!-- 14:00 -->
  <text x="54" y="484" class="text-time" text-anchor="end">14:00</text>
  <line x1="24" y1="464" x2="1176" y2="464" class="grid-line"/>
  <line x1="84" y1="514" x2="1176" y2="514" class="grid-line-light"/>
  <!-- 15:00 -->
  <text x="54" y="534" class="text-time" text-anchor="end">15:00</text>
  <line x1="24" y1="514" x2="1176" y2="514" class="grid-line"/>
  <line x1="84" y1="564" x2="1176" y2="564" class="grid-line-light"/>
  <!-- 16:00 -->
  <text x="54" y="584" class="text-time" text-anchor="end">16:00</text>
  <line x1="24" y1="564" x2="1176" y2="564" class="grid-line"/>
  <line x1="84" y1="614" x2="1176" y2="614" class="grid-line-light"/>
  <!-- 17:00 -->
  <text x="54" y="634" class="text-time" text-anchor="end">17:00</text>
  <line x1="24" y1="614" x2="1176" y2="614" class="grid-line"/>
  <line x1="84" y1="664" x2="1176" y2="664" class="grid-line-light"/>
  <!-- 18:00 -->
  <text x="54" y="684" class="text-time" text-anchor="end">18:00</text>
  <line x1="24" y1="664" x2="1176" y2="664" class="grid-line"/>
  <line x1="84" y1="714" x2="1176" y2="714" class="grid-line-light"/>
  <!-- 19:00 -->
  <text x="54" y="734" class="text-time" text-anchor="end">19:00</text>
  <line x1="24" y1="714" x2="1176" y2="714" class="grid-line"/>

  <!-- Schedule Blocks -->

  <!-- Production Block 09:00-18:00 -->
  <rect x="100" y="222" width="1060" height="442" rx="6" class="block-production"/>
  <rect x="100" y="222" width="6" height="442" rx="3" fill="#52C41A"/>
  <text x="120" y="248" class="block-production-title">[Production] Line A Production Work</text>
  <text x="120" y="270" class="block-production-text">Assignee: Kim Production</text>
  <text x="120" y="290" class="block-production-text">Location: Building A Production Line</text>
  <text x="120" y="310" class="block-production-text">Time: 09:00 - 18:00</text>
  <line x1="120" y1="330" x2="1140" y2="330" stroke="#52C41A" stroke-width="1" stroke-dasharray="4,4" opacity="0.5"/>
  <text x="120" y="352" class="block-production-desc">Description:</text>
  <text x="120" y="372" class="block-production-desc">Week 2 January Regular Production Work</text>
  <text x="120" y="392" class="block-production-desc">Target Production: 1,000 units</text>

  <!-- Meeting Block 14:00-15:00 (overlapping) -->
  <rect x="720" y="472" width="440" height="42" rx="6" class="block-meeting"/>
  <rect x="720" y="472" width="6" height="42" rx="3" fill="#1677FF"/>
  <text x="740" y="495" class="block-meeting-title">[Meeting] Weekly Production Meeting</text>
  <text x="740" y="510" class="block-meeting-text">Meeting Room A | 14:00 - 15:00</text>

  <!-- Current Time Line (e.g., 10:30) -->
  <circle cx="84" cy="289" r="6" class="current-time-circle"/>
  <line x1="84" y1="289" x2="1176" y2="289" class="current-time"/>
  <text x="95" y="285" fill="#FF4D4F" font-size="10" font-family="Arial" font-weight="600">10:30 NOW</text>

  <!-- Legend -->
  <text x="24" y="792" class="text-small">Click on a schedule to view details. Click on empty time slot to create a new schedule.</text>

  <!-- Schedule Type Legend -->
  <rect x="780" y="782" width="12" height="12" rx="2" fill="rgba(82, 196, 26, 0.15)" stroke="#52C41A" stroke-width="1"/>
  <text x="798" y="792" class="text-small">Production</text>
  <rect x="870" y="782" width="12" height="12" rx="2" fill="rgba(250, 140, 22, 0.15)" stroke="#FA8C16" stroke-width="1"/>
  <text x="888" y="792" class="text-small">Maintenance</text>
  <rect x="980" y="782" width="12" height="12" rx="2" fill="rgba(22, 119, 255, 0.15)" stroke="#1677FF" stroke-width="1"/>
  <text x="998" y="792" class="text-small">Meeting</text>
  <rect x="1060" y="782" width="12" height="12" rx="2" fill="rgba(114, 46, 209, 0.15)" stroke="#722ED1" stroke-width="1"/>
  <text x="1078" y="792" class="text-small">Training</text>
</svg>
