<svg xmlns="http://www.w3.org/2000/svg" viewBox="0 0 900 500">
  <defs>
    <style>
      .bg { fill: #f5f5f5; }
      .card { fill: #ffffff; stroke: #e8e8e8; stroke-width: 1; }
      .header-bg { fill: #fafafa; }
      .text-primary { font-family: -apple-system, BlinkMacSystemFont, 'Segoe UI', Roboto, sans-serif; font-size: 14px; fill: #262626; }
      .text-secondary { font-family: -apple-system, BlinkMacSystemFont, 'Segoe UI', Roboto, sans-serif; font-size: 12px; fill: #8c8c8c; }
      .text-title { font-family: -apple-system, BlinkMacSystemFont, 'Segoe UI', Roboto, sans-serif; font-size: 16px; fill: #262626; font-weight: 600; }
      .text-empty { font-family: -apple-system, BlinkMacSystemFont, 'Segoe UI', Roboto, sans-serif; font-size: 14px; fill: #8c8c8c; }
      .btn-active { fill: #1677ff; }
      .btn-inactive { fill: #ffffff; stroke: #d9d9d9; stroke-width: 1; }
      .btn-text-active { fill: #ffffff; }
      .btn-text-inactive { fill: #262626; }
      .empty-icon { fill: #d9d9d9; }
      .divider { stroke: #e8e8e8; stroke-width: 1; }
    </style>
  </defs>

  <!-- Background -->
  <rect width="900" height="500" class="bg"/>

  <!-- Main Card -->
  <rect x="20" y="20" width="860" height="460" rx="8" class="card"/>

  <!-- Header Section -->
  <rect x="20" y="20" width="860" height="60" rx="8" class="header-bg"/>
  <rect x="20" y="72" width="860" height="8" class="card"/>

  <!-- Title -->
  <text x="40" y="55" class="text-title">생산 계획 간트 차트</text>

  <!-- Scale Selector -->
  <g transform="translate(250, 35)">
    <rect x="0" y="0" width="60" height="30" rx="4" class="btn-inactive"/>
    <text x="30" y="20" text-anchor="middle" class="text-primary btn-text-inactive">일간</text>

    <rect x="62" y="0" width="60" height="30" rx="4" class="btn-active"/>
    <text x="92" y="20" text-anchor="middle" class="text-primary btn-text-active">주간</text>

    <rect x="124" y="0" width="60" height="30" rx="4" class="btn-inactive"/>
    <text x="154" y="20" text-anchor="middle" class="text-primary btn-text-inactive">월간</text>
  </g>

  <!-- Date Navigator -->
  <g transform="translate(500, 35)">
    <rect x="0" y="0" width="30" height="30" rx="4" class="btn-inactive"/>
    <text x="15" y="20" text-anchor="middle" class="text-primary">◀</text>

    <text x="130" y="20" text-anchor="middle" class="text-primary" font-weight="500">2026년 1월 3주차</text>

    <rect x="230" y="0" width="30" height="30" rx="4" class="btn-inactive"/>
    <text x="245" y="20" text-anchor="middle" class="text-primary">▶</text>
  </g>

  <!-- Empty State Content Area -->
  <g transform="translate(450, 250)">
    <!-- Empty Document Icon -->
    <g transform="translate(-40, -70)">
      <!-- Document shape -->
      <rect x="10" y="0" width="60" height="80" rx="4" fill="none" stroke="#d9d9d9" stroke-width="2"/>
      <rect x="10" y="0" width="60" height="80" rx="4" fill="#fafafa"/>

      <!-- Folded corner -->
      <path d="M55 0 L70 15 L55 15 Z" fill="#e8e8e8"/>
      <path d="M55 0 L70 15" fill="none" stroke="#d9d9d9" stroke-width="2"/>

      <!-- Lines representing content -->
      <line x1="20" y1="30" x2="60" y2="30" stroke="#d9d9d9" stroke-width="2"/>
      <line x1="20" y1="42" x2="55" y2="42" stroke="#d9d9d9" stroke-width="2"/>
      <line x1="20" y1="54" x2="50" y2="54" stroke="#d9d9d9" stroke-width="2"/>
      <line x1="20" y1="66" x2="45" y2="66" stroke="#d9d9d9" stroke-width="2"/>

      <!-- Calendar/Gantt icon overlay -->
      <g transform="translate(45, 55)">
        <rect x="0" y="0" width="30" height="25" rx="3" fill="#ffffff" stroke="#d9d9d9" stroke-width="1.5"/>
        <line x1="0" y1="8" x2="30" y2="8" stroke="#d9d9d9" stroke-width="1.5"/>
        <rect x="4" y="12" width="8" height="3" rx="1" fill="#d9d9d9"/>
        <rect x="14" y="12" width="12" height="3" rx="1" fill="#d9d9d9"/>
        <rect x="4" y="18" width="15" height="3" rx="1" fill="#d9d9d9"/>
      </g>
    </g>

    <!-- Empty State Text -->
    <text x="0" y="50" text-anchor="middle" class="text-empty" font-size="16">등록된 생산 계획이 없습니다.</text>
    <text x="0" y="75" text-anchor="middle" class="text-secondary">새로운 생산 계획을 등록해 주세요.</text>
  </g>

  <!-- Footer (minimal) -->
  <rect x="30" y="430" width="840" height="40" rx="0 0 8 8" class="header-bg"/>
  <line x1="30" y1="430" x2="870" y2="430" class="divider"/>

  <g transform="translate(50, 455)">
    <text x="0" y="0" class="text-secondary">데이터가 없습니다</text>
  </g>
</svg>
